<svg width = "2560"
     height = "3652"
     viewBox = "0 0 2560 3652"
     fill = "none"
     xmlns = "http://www.w3.org/2000/svg">
<path d = "M1753 90.3718C1660.01 3.97189 1245.16 163.41 1071.19 272.141C1057.48 280.709 1056.08 300.75 1061.93 315.82C1083.82 372.211 1074.95 501.439 922.571 725.959C737.772 998.252 1135.58 1066.86 1357.58 1067.13C1513.88 1048.71 1955.68 907.696 2041.68 742.293C2121.84 588.136 2090.94 418.734 1991.26 404.896C2047.84 402.713 2157.51 387.822 2112 313.372C2028.32 176.497 1880 208.372 1753 90.3718Z"
      fill = "#FFE500"/>
<path d = "M1640.43 701.474C1817.25 651.427 1558.72 359.566 1393.48 206.38C1384.35 197.919 1370.35 197.701 1359.03 202.876C1290.73 234.108 1098.39 245.043 733.967 91.3462C329.678 -79.1625 243.534 318.716 250.911 540.999C250.958 542.437 251.109 543.72 251.417 545.126C285.765 702.095 508.024 1133.16 752.346 1210.49C996.368 1287.73 1261.02 1237.75 1244.47 1122.24C1244.29 1120.99 1244.19 1119.9 1244.07 1118.64C1237.76 1054.82 941.847 659.2 1098.17 587.492C1295.37 497.029 1412.12 766.09 1640.43 701.474Z"
      fill = "#A4B0F0"/>
<g filter = "url(#filter0_d)">
<path d = "M-1.5 41C-1.5 41 596.5 242 1015.5 95C1203.7 28.9711 1451.37 113.803 1622.5 136C1832.35 163.221 2587.5 56.5 2587.5 56.5L2652.5 3630.01H-83L-1.5 41Z"
      fill = "url(#paint0_linear)"/>
</g>
<path d = "M582.103 1143.92C388.991 1218.42 -1.29299 1429.36 -119.732 1586.31C-135.765 1607.56 -209.276 1627.12 -227.679 1607.89L-582.187 1237.43C-589.798 1229.48 -591.311 1217.48 -585.914 1207.89L-60.0496 273.12C-57.5713 268.715 -53.851 265.181 -49.3994 262.786C-17.1556 245.446 59.7541 201.56 308.393 195.236C576.601 188.414 832.747 489.113 854.399 642.511C878.62 814.11 821.642 1051.51 582.103 1143.92Z"
      fill = "white"
      fill-opacity = "0.24"/>
<path d = "M694.103 2533.92C481.329 2616.01 487.392 2878.25 525.639 3040.14C530.682 3061.48 508.588 3080.55 488.744 3071.21L-458.671 2625.48C-471.812 2619.3 -476.938 2603.26 -469.817 2590.61L51.9506 1663.12C54.4289 1658.71 58.1492 1655.18 62.6008 1652.79C94.8446 1635.45 171.754 1591.56 420.393 1585.24C688.602 1578.41 944.747 1879.11 966.399 2032.51C990.62 2204.11 933.642 2441.51 694.103 2533.92Z"
      fill = "white"
      fill-opacity = "0.24"/>
<path d = "M667.246 1161.86C645.581 1166.99 612.759 1165.09 582.627 1161.11C551.97 1157.06 522.606 1178.67 520.528 1209.52L506.594 1416.4C504.649 1445.27 527.544 1469.76 556.481 1469.76H1174.43C1197.02 1469.76 1386.28 1391.57 1365 1384C1338.5 1374.57 1274.6 1352.58 1279 1317C1284.75 1270.5 1261.36 1212.81 1214.25 1189.03C1167.13 1165.25 1131.54 1197.05 1105.48 1197.05C1059.62 1197.05 1056.39 1157.92 1013.25 1150.55C991.385 1146.82 917.239 1161.86 875.241 1176.32C833.242 1190.77 792.756 1145.2 763.743 1141.13C725.744 1135.79 714.995 1150.55 667.246 1161.86Z"
      fill = "url(#paint1_linear)"
      fill-opacity = "0.8"/>
<path d = "M2362.73 2171.36C2416.85 2184.17 2507.74 2173.82 2575.2 2161.82C2605.65 2156.41 2634.97 2178.07 2637.05 2208.91L2669.89 2696.05C2671.95 2726.5 2646.48 2751.67 2616.05 2749.25L1626.62 2670.78C1581.31 2667.19 998.44 2606.81 1041.27 2591.59C1091.46 2573.76 1212.48 2532.16 1204.15 2464.84C1193.26 2376.88 1237.55 2267.74 1326.78 2222.75C1416.02 2177.76 1483.41 2237.93 1532.76 2237.93C1619.63 2237.93 1625.74 2163.91 1707.44 2149.96C1748.85 2142.89 1889.28 2171.36 1968.82 2198.7C2048.36 2226.04 2125.03 2139.85 2179.98 2132.13C2251.94 2122.03 2272.3 2149.96 2362.73 2171.36Z"
      fill = "url(#paint2_linear)"
      fill-opacity = "0.8"/>
<path d = "M1930.49 601.861C1955.25 607.75 1993.41 605.153 2027.48 600.351C2058.12 596.032 2087.52 617.683 2089.59 648.563L2105.42 884.557C2107.36 913.424 2084.47 937.903 2055.53 937.903H1379.56C1354.87 937.903 1148.9 852.608 1172.15 844.304C1200.95 834.017 1270.4 810.017 1265.61 771.18C1259.37 720.43 1284.79 657.466 1335.99 631.51C1387.2 605.554 1425.88 640.266 1454.2 640.266C1504.05 640.266 1507.56 597.561 1554.44 589.517C1578.2 585.439 1658.79 601.861 1704.44 617.635C1750.08 633.408 1794.08 583.681 1825.61 579.23C1866.91 573.401 1878.6 589.517 1930.49 601.861Z"
      fill = "url(#paint3_linear)"
      fill-opacity = "0.8"/>

<g transform="translate(536 20.5)">
<circle cx = "1221.02"
        cy = "73.8548"
        r = "3.5"
        transform = "rotate(-9.59412 1221.02 73.8548)"
        fill = "#FFD707"
        fill-opacity = "0.21"/>
<circle cx = "1233.83"
        cy = "71.6892"
        r = "3.5"
        transform = "rotate(-9.59412 1233.83 71.6892)"
        fill = "#FFD707"
        fill-opacity = "0.21"/>
<circle cx = "1246.65"
        cy = "69.5235"
        r = "3.5"
        transform = "rotate(-9.59412 1246.65 69.5235)"
        fill = "#FFD707"
        fill-opacity = "0.21"/>
<circle cx = "1259.46"
        cy = "67.3579"
        r = "3.5"
        transform = "rotate(-9.59412 1259.46 67.3579)"
        fill = "#FFD707"
        fill-opacity = "0.21"/>
<circle cx = "1228.9"
        cy = "83.0645"
        r = "3.5"
        transform = "rotate(-9.59412 1228.9 83.0645)"
        fill = "#FFD707"
        fill-opacity = "0.21"/>
<circle cx = "1241.72"
        cy = "80.8987"
        r = "3.5"
        transform = "rotate(-9.59412 1241.72 80.8987)"
        fill = "#FFD707"
        fill-opacity = "0.21"/>
<circle cx = "1254.53"
        cy = "78.7332"
        r = "3.5"
        transform = "rotate(-9.59412 1254.53 78.7332)"
        fill = "#FFD707"
        fill-opacity = "0.21"/>
<circle cx = "1267.34"
        cy = "76.5677"
        r = "3.5"
        transform = "rotate(-9.59412 1267.34 76.5677)"
        fill = "#FFD707"
        fill-opacity = "0.21"/>
<circle cx = "1237.3"
        cy = "92.1878"
        r = "3.5"
        transform = "rotate(-9.59412 1237.3 92.1878)"
        fill = "#FFD707"
        fill-opacity = "0.21"/>
<circle cx = "1250.11"
        cy = "90.0222"
        r = "3.5"
        transform = "rotate(-9.59412 1250.11 90.0222)"
        fill = "#FFD707"
        fill-opacity = "0.21"/>
<circle cx = "1271.76"
        cy = "65.2791"
        r = "3.5"
        transform = "rotate(-9.59412 1271.76 65.2791)"
        fill = "#FFD707"
        fill-opacity = "0.21"/>
<circle cx = "1204.83"
        cy = "56.0337"
        r = "3.5"
        transform = "rotate(-9.59412 1204.83 56.0337)"
        fill = "#FFD707"
        fill-opacity = "0.21"/>
<circle cx = "1217.64"
        cy = "53.8682"
        r = "3.5"
        transform = "rotate(-9.59412 1217.64 53.8682)"
        fill = "#FFD707"
        fill-opacity = "0.21"/>
<circle cx = "1230.46"
        cy = "51.7027"
        r = "3.5"
        transform = "rotate(-9.59412 1230.46 51.7027)"
        fill = "#FFD707"
        fill-opacity = "0.21"/>
<circle cx = "1243.27"
        cy = "49.5371"
        r = "3.5"
        transform = "rotate(-9.59412 1243.27 49.5371)"
        fill = "#FFD707"
        fill-opacity = "0.21"/>
<circle cx = "1212.71"
        cy = "65.2439"
        r = "3.5"
        transform = "rotate(-9.59412 1212.71 65.2439)"
        fill = "#FFD707"
        fill-opacity = "0.21"/>
<circle cx = "1225.53"
        cy = "63.0784"
        r = "3.5"
        transform = "rotate(-9.59412 1225.53 63.0784)"
        fill = "#FFD707"
        fill-opacity = "0.21"/>
<circle cx = "1238.34"
        cy = "60.9129"
        r = "3.5"
        transform = "rotate(-9.59412 1238.34 60.9129)"
        fill = "#FFD707"
        fill-opacity = "0.21"/>
<circle cx = "1251.15"
        cy = "58.7471"
        r = "3.5"
        transform = "rotate(-9.59412 1251.15 58.7471)"
        fill = "#FFD707"
        fill-opacity = "0.21"/>
<circle cx = "1255.57"
        cy = "47.458"
        r = "3.5"
        transform = "rotate(-9.59412 1255.57 47.458)"
        fill = "#FFD707"
        fill-opacity = "0.21"/>
<circle cx = "1268.38"
        cy = "45.2925"
        r = "3.5"
        transform = "rotate(-9.59412 1268.38 45.2925)"
        fill = "#FFD707"
        fill-opacity = "0.21"/>
<circle cx = "1263.45"
        cy = "56.6682"
        r = "3.5"
        transform = "rotate(-9.59412 1263.45 56.6682)"
        fill = "#FFD707"
        fill-opacity = "0.21"/>
<circle cx = "1276.26"
        cy = "54.5027"
        r = "3.5"
        transform = "rotate(-9.59412 1276.26 54.5027)"
        fill = "#FFD707"
        fill-opacity = "0.21"/>
<circle cx = "1208.72"
        cy = "75.9336"
        r = "3.5"
        transform = "rotate(-9.59412 1208.72 75.9336)"
        fill = "#FFD707"
        fill-opacity = "0.21"/>
<circle cx = "1216.61"
        cy = "85.1433"
        r = "3.5"
        transform = "rotate(-9.59412 1216.61 85.1433)"
        fill = "#FFD707"
        fill-opacity = "0.21"/>
<circle cx = "1225"
        cy = "94.2669"
        r = "3.5"
        transform = "rotate(-9.59412 1225 94.2669)"
        fill = "#FFD707"
        fill-opacity = "0.21"/>
<circle cx = "1222.17"
        cy = "11.7364"
        r = "3.5"
        transform = "rotate(-9.59412 1222.17 11.7364)"
        fill = "#FFD707"
        fill-opacity = "0.21"/>
<circle cx = "1230.56"
        cy = "20.8599"
        r = "3.5"
        transform = "rotate(-9.59412 1230.56 20.8599)"
        fill = "#FFD707"
        fill-opacity = "0.21"/>
<circle cx = "1243.37"
        cy = "18.6941"
        r = "3.5"
        transform = "rotate(-9.59412 1243.37 18.6941)"
        fill = "#FFD707"
        fill-opacity = "0.21"/>
<circle cx = "1209.87"
        cy = "13.8152"
        r = "3.5"
        transform = "rotate(-9.59412 1209.87 13.8152)"
        fill = "#FFD707"
        fill-opacity = "0.21"/>
<circle cx = "1218.26"
        cy = "22.9388"
        r = "3.5"
        transform = "rotate(-9.59412 1218.26 22.9388)"
        fill = "#FFD707"
        fill-opacity = "0.21"/>
<circle cx = "1225.97"
        cy = "31.3775"
        r = "3.5"
        transform = "rotate(-9.59412 1225.97 31.3775)"
        fill = "#FFD707"
        fill-opacity = "0.21"/>
<circle cx = "1238.78"
        cy = "29.2119"
        r = "3.5"
        transform = "rotate(-9.59412 1238.78 29.2119)"
        fill = "#FFD707"
        fill-opacity = "0.21"/>
<circle cx = "1251.59"
        cy = "27.0464"
        r = "3.5"
        transform = "rotate(-9.59412 1251.59 27.0464)"
        fill = "#FFD707"
        fill-opacity = "0.21"/>
<circle cx = "1234.36"
        cy = "40.5005"
        r = "3.5"
        transform = "rotate(-9.59412 1234.36 40.5005)"
        fill = "#FFD707"
        fill-opacity = "0.21"/>
<circle cx = "1247.17"
        cy = "38.335"
        r = "3.5"
        transform = "rotate(-9.59412 1247.17 38.335)"
        fill = "#FFD707"
        fill-opacity = "0.21"/>
<circle cx = "1271.88"
        cy = "34.1585"
        r = "3.5"
        transform = "rotate(-9.59412 1271.88 34.1585)"
        fill = "#FFD707"
        fill-opacity = "0.21"/>
<circle cx = "1213.67"
        cy = "33.4566"
        r = "3.5"
        transform = "rotate(-9.59412 1213.67 33.4566)"
        fill = "#FFD707"
        fill-opacity = "0.21"/>
<circle cx = "1209.25"
        cy = "44.7452"
        r = "3.5"
        transform = "rotate(-9.59412 1209.25 44.7452)"
        fill = "#FFD707"
        fill-opacity = "0.21"/>
<circle cx = "1222.06"
        cy = "42.5796"
        r = "3.5"
        transform = "rotate(-9.59412 1222.06 42.5796)"
        fill = "#FFD707"
        fill-opacity = "0.21"/>
</g>
<g transform="translate(436 -20.5)" opacity = "0.3">
<circle cx = "155.265"
        cy = "110.438"
        r = "3.5"
        transform = "rotate(25.1973 155.265 110.438)"
        fill = "#D4D6FD"/>
<circle cx = "167.022"
        cy = "115.97"
        r = "3.5"
        transform = "rotate(25.1973 167.022 115.97)"
        fill = "#D4D6FD"/>
<circle cx = "178.779"
        cy = "121.502"
        r = "3.5"
        transform = "rotate(25.1973 178.779 121.502)"
        fill = "#D4D6FD"/>
<circle cx = "190.536"
        cy = "127.033"
        r = "3.5"
        transform = "rotate(25.1973 190.536 127.033)"
        fill = "#D4D6FD"/>
<circle cx = "156.483"
        cy = "122.499"
        r = "3.5"
        transform = "rotate(25.1973 156.483 122.499)"
        fill = "#D4D6FD"/>
<circle cx = "168.24"
        cy = "128.03"
        r = "3.5"
        transform = "rotate(25.1973 168.24 128.03)"
        fill = "#D4D6FD"/>
<circle cx = "179.997"
        cy = "133.562"
        r = "3.5"
        transform = "rotate(25.1973 179.997 133.562)"
        fill = "#D4D6FD"/>
<circle cx = "191.754"
        cy = "139.094"
        r = "3.5"
        transform = "rotate(25.1973 191.754 139.094)"
        fill = "#D4D6FD"/>
<circle cx = "158.171"
        cy = "134.781"
        r = "3.5"
        transform = "rotate(25.1973 158.171 134.781)"
        fill = "#D4D6FD"/>
<circle cx = "169.928"
        cy = "140.313"
        r = "3.5"
        transform = "rotate(25.1973 169.928 140.313)"
        fill = "#D4D6FD"/>
<circle cx = "201.823"
        cy = "132.344"
        r = "3.5"
        transform = "rotate(25.1973 201.823 132.344)"
        fill = "#D4D6FD"/>
<circle cx = "222.725"
        cy = "131.497"
        r = "3.5"
        transform = "rotate(25.1973 222.725 131.497)"
        fill = "#D4D6FD"/>
<circle cx = "232.794"
        cy = "124.747"
        r = "3.5"
        transform = "rotate(25.1973 232.794 124.747)"
        fill = "#D4D6FD"/>
<circle cx = "152.138"
        cy = "86.565"
        r = "3.5"
        transform = "rotate(25.1973 152.138 86.565)"
        fill = "#D4D6FD"/>
<circle cx = "163.895"
        cy = "92.0967"
        r = "3.5"
        transform = "rotate(25.1973 163.895 92.0967)"
        fill = "#D4D6FD"/>
<circle cx = "175.652"
        cy = "97.6285"
        r = "3.5"
        transform = "rotate(25.1973 175.652 97.6285)"
        fill = "#D4D6FD"/>
<circle cx = "187.409"
        cy = "103.16"
        r = "3.5"
        transform = "rotate(25.1973 187.409 103.16)"
        fill = "#D4D6FD"/>
<circle cx = "153.356"
        cy = "98.626"
        r = "3.5"
        transform = "rotate(25.1973 153.356 98.626)"
        fill = "#D4D6FD"/>
<circle cx = "165.113"
        cy = "104.158"
        r = "3.5"
        transform = "rotate(25.1973 165.113 104.158)"
        fill = "#D4D6FD"/>
<circle cx = "176.87"
        cy = "109.69"
        r = "3.5"
        transform = "rotate(25.1973 176.87 109.69)"
        fill = "#D4D6FD"/>
<circle cx = "188.627"
        cy = "115.221"
        r = "3.5"
        transform = "rotate(25.1973 188.627 115.221)"
        fill = "#D4D6FD"/>
<circle cx = "198.695"
        cy = "108.471"
        r = "3.5"
        transform = "rotate(25.1973 198.695 108.471)"
        fill = "#D4D6FD"/>
<circle cx = "210.453"
        cy = "114.003"
        r = "3.5"
        transform = "rotate(25.1973 210.453 114.003)"
        fill = "#D4D6FD"/>
<circle cx = "199.913"
        cy = "120.532"
        r = "3.5"
        transform = "rotate(25.1973 199.913 120.532)"
        fill = "#D4D6FD"/>
<circle cx = "211.671"
        cy = "126.064"
        r = "3.5"
        transform = "rotate(25.1973 211.671 126.064)"
        fill = "#D4D6FD"/>
<circle cx = "143.978"
        cy = "105.128"
        r = "3.5"
        transform = "rotate(25.1973 143.978 105.128)"
        fill = "#D4D6FD"/>
<circle cx = "145.196"
        cy = "117.188"
        r = "3.5"
        transform = "rotate(25.1973 145.196 117.188)"
        fill = "#D4D6FD"/>
<circle cx = "146.884"
        cy = "129.471"
        r = "3.5"
        transform = "rotate(25.1973 146.884 129.471)"
        fill = "#D4D6FD"/>
<circle cx = "191.648"
        cy = "60.0765"
        r = "3.5"
        transform = "rotate(25.1973 191.648 60.0765)"
        fill = "#D4D6FD"/>
<circle cx = "203.405"
        cy = "65.6082"
        r = "3.5"
        transform = "rotate(25.1973 203.405 65.6082)"
        fill = "#D4D6FD"/>
<circle cx = "193.336"
        cy = "72.3587"
        r = "3.5"
        transform = "rotate(25.1973 193.336 72.3587)"
        fill = "#D4D6FD"/>
<circle cx = "205.093"
        cy = "77.8904"
        r = "3.5"
        transform = "rotate(25.1973 205.093 77.8904)"
        fill = "#D4D6FD"/>
<circle cx = "180.361"
        cy = "54.7659"
        r = "3.5"
        transform = "rotate(25.1973 180.361 54.7659)"
        fill = "#D4D6FD"/>
<circle cx = "182.049"
        cy = "67.0484"
        r = "3.5"
        transform = "rotate(25.1973 182.049 67.0484)"
        fill = "#D4D6FD"/>
<circle cx = "183.562"
        cy = "78.3751"
        r = "3.5"
        transform = "rotate(25.1973 183.562 78.3751)"
        fill = "#D4D6FD"/>
<circle cx = "195.319"
        cy = "83.9068"
        r = "3.5"
        transform = "rotate(25.1973 195.319 83.9068)"
        fill = "#D4D6FD"/>
<circle cx = "207.076"
        cy = "89.4385"
        r = "3.5"
        transform = "rotate(25.1973 207.076 89.4385)"
        fill = "#D4D6FD"/>
<circle cx = "185.25"
        cy = "90.657"
        r = "3.5"
        transform = "rotate(25.1973 185.25 90.657)"
        fill = "#D4D6FD"/>
<circle cx = "197.007"
        cy = "96.1888"
        r = "3.5"
        transform = "rotate(25.1973 197.007 96.1888)"
        fill = "#D4D6FD"/>
<circle cx = "208.764"
        cy = "101.721"
        r = "3.5"
        transform = "rotate(25.1973 208.764 101.721)"
        fill = "#D4D6FD"/>
<circle cx = "221.37"
        cy = "119.139"
        r = "3.5"
        transform = "rotate(25.1973 221.37 119.139)"
        fill = "#D4D6FD"/>
<circle cx = "217.994"
        cy = "94.5753"
        r = "3.5"
        transform = "rotate(25.1973 217.994 94.5753)"
        fill = "#D4D6FD"/>
<circle cx = "219.682"
        cy = "106.857"
        r = "3.5"
        transform = "rotate(25.1973 219.682 106.857)"
        fill = "#D4D6FD"/>
<circle cx = "172.275"
        cy = "73.0645"
        r = "3.5"
        transform = "rotate(25.1973 172.275 73.0645)"
        fill = "#D4D6FD"/>
<circle cx = "162.206"
        cy = "79.8148"
        r = "3.5"
        transform = "rotate(25.1973 162.206 79.8148)"
        fill = "#D4D6FD"/>
<circle cx = "173.964"
        cy = "85.3465"
        r = "3.5"
        transform = "rotate(25.1973 173.964 85.3465)"
        fill = "#D4D6FD"/>
</g>
<defs>

<filter id = "filter0_d"
        x = "-109"
        y = "10"
        width = "2787.5"
        height = "3641.01"
        filterUnits = "userSpaceOnUse"
        color-interpolation-filters = "sRGB">
<feFlood flood-opacity = "0"
         result = "BackgroundImageFix"/>
<feColorMatrix in = "SourceAlpha"
               type = "matrix"
               values = "0 0 0 0 0 0 0 0 0 0 0 0 0 0 0 0 0 0 127 0"/>
<feOffset dy = "-5"/>
<feGaussianBlur stdDeviation = "13"/>
<feColorMatrix type = "matrix"
               values = "0 0 0 0 0 0 0 0 0 0 0 0 0 0 0 0 0 0 0.07 0"/>
<feBlend mode = "normal"
         in2 = "BackgroundImageFix"
         result = "effect1_dropShadow"/>
<feBlend mode = "normal"
         in = "SourceGraphic"
         in2 = "effect1_dropShadow"
         result = "shape"/>
</filter>
<linearGradient id = "paint0_linear"
                x1 = "1280"
                y1 = "54.1943"
                x2 = "1280"
                y2 = "2381"
                gradientUnits = "userSpaceOnUse">
<stop stop-color = "#D2CFF3"/>
<stop offset = "0.0677083"
      stop-color = "#F3F4FA"/>
<stop offset = "0.846802"
      stop-color = "#F4F5FB"/>
<stop offset = "1"
      stop-color = "#DBF0FF"/>
</linearGradient>
<linearGradient id = "paint1_linear"
                x1 = "910.5"
                y1 = "1140"
                x2 = "910.5"
                y2 = "1470"
                gradientUnits = "userSpaceOnUse">
<stop stop-color = "white"/>
<stop offset = "1"
      stop-color = "white"
      stop-opacity = "0"/>
</linearGradient>
<linearGradient id = "paint2_linear"
                x1 = "1902.04"
                y1 = "2130"
                x2 = "1878.79"
                y2 = "2634"
                gradientUnits = "userSpaceOnUse">
<stop stop-color = "white"/>
<stop offset = "1"
      stop-color = "white"
      stop-opacity = "0"/>
</linearGradient>
<linearGradient id = "paint3_linear"
                x1 = "1666.11"
                y1 = "578"
                x2 = "1666.11"
                y2 = "938.165"
                gradientUnits = "userSpaceOnUse">
<stop stop-color = "white"/>
<stop offset = "1"
      stop-color = "white"
      stop-opacity = "0"/>
</linearGradient>
</defs>
</svg>
