<svg width="2560" height="3290" viewBox="0 0 2560 3290" fill="none" xmlns="http://www.w3.org/2000/svg">
<path d="M1883.01 64.0263C1954.39 75.4058 2521.78 25.2346 2700.45 5.88173C2727.62 2.93841 2752.89 21.6208 2757.61 48.5434L2821.87 415.483C2827.18 445.822 2804.06 473.704 2773.27 474.104L768.577 500.18C738.176 500.576 375.611 387.748 405.179 380.67L408.402 379.9C466.304 366.059 596.472 334.943 587.326 285.166C575.148 218.884 624.685 136.65 724.475 102.75C824.265 68.8494 899.639 114.185 954.829 114.185C1051.98 114.185 1058.81 58.4102 1150.18 47.9039C1196.49 42.5781 1353.53 64.0263 1442.48 84.6273C1531.44 105.228 1617.18 40.2814 1678.63 34.4685C1759.11 26.855 1781.88 47.9039 1883.01 64.0263Z" fill="url(#paint0_linear)" fill-opacity="0.4"/>
<path d="M-79 262.265C-79 262.265 631.979 31.4466 984.459 165.951C1092.09 207.023 1201.58 98.458 1336.83 74.5721C1454.42 53.8058 1483.1 168.426 1583.48 165.95C1894.21 74.5721 2622.47 290.703 2622.47 290.703C2622.47 290.703 2616.37 3177.51 2616.37 3190.78C2616.37 3204.05 1542.93 3079.97 1290.15 3161.58C1037.36 3243.19 1046.11 3073.55 942.752 3095.72C716.219 3144.31 -61.2004 3290 -61.2004 3290L-79 262.265Z" fill="url(#paint1_linear)"/>
<defs>
<linearGradient id="paint0_linear" x1="1367.8" y1="32.8621" x2="1367.8" y2="503.259" gradientUnits="userSpaceOnUse">
<stop stop-color="white"/>
<stop offset="1" stop-color="white" stop-opacity="0"/>
</linearGradient>
<linearGradient id="paint1_linear" x1="1303.37" y1="106.17" x2="1303.37" y2="2842.29" gradientUnits="userSpaceOnUse">
<stop stop-color="#554071"/>
<stop offset="0.223026" stop-color="#452E57"/>
<stop offset="1" stop-color="#3B2F4B"/>
</linearGradient>
</defs>
</svg>
