<svg width="2560" height="1180" viewBox="0 0 2560 1180" fill="none" xmlns="http://www.w3.org/2000/svg">
<path d="M2849 505C2849 505 1956.22 1232.27 1741.94 1116.76C1597.12 1038.71 1457.54 1155.42 1276.94 1176.85C1057.46 1202.9 971.397 1057.83 793.882 1085.39C526.451 1126.93 -368 751.5 -368 751.5L-330.655 -85.4999C-330.655 -85.4999 532.863 -315.214 653.541 -332.014C800.056 -352.412 784.036 -311.84 930.609 -332.014C1025.88 -345.127 1050.56 -384.701 1147.44 -386.901C1254.92 -389.341 1431.3 -345.928 1537.15 -332.014C1683.15 -312.821 1771.84 -343.773 1916.61 -320.085C2017.76 -303.533 2849 -48.4998 2849 -48.4998L2849 505Z" fill="url(#paint0_linear)"/>
<defs>
<linearGradient id="paint0_linear" x1="1261.88" y1="1078.18" x2="1261.88" y2="-299.298" gradientUnits="userSpaceOnUse">
<stop offset="0.776042" stop-color="#ECE9FF"/>
<stop offset="1" stop-color="#FDFDFD"/>
</linearGradient>
</defs>
</svg>
