<svg width="2560" height="1567" viewBox="0 0 2560 1567" fill="none" xmlns="http://www.w3.org/2000/svg">
<path d="M500.847 16.6278C452.146 24.0758 100.806 104.637 -18.3796 120.239C-39.6107 123.018 -60.6529 135.272 -70.5451 154.262L-150.733 308.199C-168.572 342.444 -142.511 383.126 -103.944 381.238L1271.42 313.908C1286.55 313.167 1534.53 229.45 1519.77 226.061C1481.07 217.175 1448.88 199.485 1455.31 165.935C1463.7 122.096 1368.43 64.6622 1299.63 42.2401C1230.82 19.818 1178.86 49.8038 1140.8 49.8037C1073.82 49.8037 1069.11 12.9133 1006.12 5.96425C974.185 2.44168 865.911 16.6279 804.58 30.2537C743.249 43.8794 691.828 9.80923 649.461 5.96445C593.971 0.92881 570.574 5.96418 500.847 16.6278Z" fill="white" fill-opacity="0.31"/>
<path d="M1372.88 135.324C1333.66 145.519 1265.82 177.507 1213.39 193.868C1185.89 202.449 1161.67 227.968 1161.98 256.772L1163.43 393.826C1163.75 423.252 1189.28 446.045 1218.55 443.032L2168.96 345.204C2187.85 343.26 2426.74 241.66 2407.89 239.327C2368.49 234.45 2334.65 220.149 2337.61 186.118C2341.47 141.649 2240.82 94.2727 2170.08 79.0133C2099.35 63.7539 2050.72 98.9031 2012.87 102.799C1946.24 109.658 1937.78 73.4437 1874.4 72.9811C1842.28 72.7466 1736.02 97.9447 1676.41 117.779C1616.8 137.613 1562.16 108.987 1519.62 109.5C1463.91 110.173 1441.15 117.577 1372.88 135.324Z" fill="white" fill-opacity="0.31"/>
<path d="M-85.5 334.5C-85.5 334.5 707.618 -52.2667 885.5 63.237C1005.71 141.294 1121.58 24.5787 1271.5 3.14577C1453.7 -22.9017 1525.14 122.175 1672.5 94.6059C1894.5 53.0729 2655 260.5 2655 260.5L2556.5 1328.5C2556.5 1328.5 1889.18 1495.21 1789 1512.01C1667.37 1532.41 1680.67 1491.84 1559 1512.01C1479.91 1525.13 1459.43 1564.7 1379 1566.9C1289.78 1569.34 1143.36 1525.93 1055.5 1512.01C934.303 1492.82 860.675 1523.77 740.5 1500.08C656.531 1483.53 -17.5 1462 -17.5 1462L-85.5 334.5Z" fill="url(#paint0_linear)"/>
<defs>
<linearGradient id="paint0_linear" x1="1284" y1="101.815" x2="1284" y2="1479.3" gradientUnits="userSpaceOnUse">
<stop offset="0.0104167" stop-color="#FFC4B1"/>
<stop offset="0.0989583" stop-color="#FDD8CA"/>
<stop offset="1" stop-color="#FDE3CA"/>
</linearGradient>
</defs>
</svg>
