<svg width="121" height="122" viewBox="0 0 121 122" fill="none" xmlns="http://www.w3.org/2000/svg">
  <rect x="0" y="0" width="122" height="122" fill="#8BCDE2"/>
<path d="M76.6523 29.213C73.5091 29.2031 70.5592 30.0265 68.0107 31.4745C63.6661 33.9431 58.3342 33.9431 53.9895 31.4745C51.441 30.0265 48.4911 29.2031 45.3479 29.213C35.7199 29.2433 27.9461 37.358 27.9963 46.9857C28.0831 63.6371 34.0871 84.4559 42.2027 92.5716C43.5782 93.9471 45.4811 94.7954 47.5821 94.787C51.7681 94.7704 55.0966 91.2793 55.116 87.0933C55.1475 80.2932 58.1273 78.7606 61 78.7606C63.8729 78.7606 66.8527 80.2932 66.884 87.0932C66.9034 91.2792 70.232 94.7704 74.4181 94.7869C76.5191 94.7952 78.4219 93.947 79.7974 92.5714C87.913 84.4559 93.9172 63.637 94.0037 46.9857C94.0539 37.358 86.2802 29.2433 76.6523 29.213Z" fill="#E8E9EA"/>
<path opacity="0.05" d="M69.5497 34.9666L69.4589 34.8239C68.817 33.8138 68.2652 32.9465 67.1726 31.9141C66.514 32.2323 65.8363 32.4955 65.1463 32.7062C66.5679 33.8806 67.1174 34.745 67.8266 35.8611L67.9181 36.005C68.1025 36.2945 68.4151 36.4528 68.7347 36.4528C68.9124 36.4528 69.0921 36.4038 69.253 36.3015C69.7037 36.0148 69.8363 35.4171 69.5497 34.9666ZM52.5417 34.8236L52.4507 34.9666C52.1639 35.4171 52.2967 36.0148 52.7472 36.3015C52.9081 36.4041 53.0878 36.4528 53.2654 36.4528C53.585 36.4528 53.8977 36.2945 54.0819 36.005L54.1737 35.8609C54.8831 34.7448 55.4324 33.8804 56.8539 32.7062C56.1639 32.4955 55.4863 32.2323 54.8276 31.9141C53.7354 32.9465 53.1836 33.8137 52.5417 34.8236Z" fill="black"/>
<path opacity="0.05" d="M71.1582 79.0902C67.6587 74.9433 60.0766 72.8351 49.3606 74.7079C34.0347 77.3862 34.844 41.5616 39.6589 30.2148C32.8364 32.6702 27.9565 39.3521 27.9963 46.9863C28.0831 63.6377 34.0871 84.4565 42.2027 92.5722C43.5782 93.9477 45.4811 94.796 47.5821 94.7876C51.7681 94.771 55.0966 91.2799 55.116 87.0939C55.1475 80.2938 58.1273 78.7612 61 78.7612C63.8729 78.7612 66.8527 80.2938 66.884 87.0938C66.9034 91.2798 70.232 94.771 74.4181 94.7875C76.5191 94.7957 78.4219 93.9476 79.7974 92.572C83.6477 88.7218 87.0219 82.0116 89.5152 74.2444C79.9763 89.0615 74.3727 82.8993 71.1582 79.0902Z" fill="black"/>
<path d="M47.6274 58.3886C50.3523 58.3886 52.5613 56.6293 52.5613 54.459C52.5613 52.2887 50.3523 50.5293 47.6274 50.5293C44.9024 50.5293 42.6934 52.2887 42.6934 54.459C42.6934 56.6293 44.9024 58.3886 47.6274 58.3886Z" fill="#F28B74"/>
<path d="M74.373 58.3886C77.0979 58.3886 79.3069 56.6293 79.3069 54.459C79.3069 52.2887 77.0979 50.5293 74.373 50.5293C71.648 50.5293 69.439 52.2887 69.439 54.459C69.439 56.6293 71.648 58.3886 74.373 58.3886Z" fill="#F28B74"/>
<path d="M61 55.015C59.0255 55.015 57.4248 53.4143 57.4248 51.4398V48.8407C57.4248 48.3017 57.8618 47.8647 58.4007 47.8647H63.5991C64.1381 47.8647 64.5751 48.3017 64.5751 48.8407V51.4398C64.5751 53.4143 62.9745 55.015 61 55.015Z" fill="#495059"/>
<path d="M88.5837 39.9294C88.2313 40.7384 87.084 40.7384 86.7316 39.9294C86.0399 38.3415 84.7728 37.0742 83.1848 36.3825C82.3759 36.0302 82.3759 34.8828 83.1848 34.5304C84.7728 33.8388 86.0399 32.5716 86.7316 30.9837C87.084 30.1747 88.2313 30.1747 88.5837 30.9837C89.2754 32.5716 90.5425 33.8388 92.1306 34.5304C92.9395 34.8828 92.9395 36.0302 92.1306 36.3825C90.5427 37.0742 89.2754 38.3415 88.5837 39.9294Z" fill="#76B7EB"/>
<path d="M81.2861 70.5327C81.0246 71.133 80.1732 71.133 79.9117 70.5327C79.3983 69.3544 78.458 68.414 77.2796 67.9006C76.6793 67.6391 76.6793 66.7877 77.2796 66.5262C78.4579 66.0128 79.3983 65.0725 79.9117 63.8941C80.1732 63.2938 81.0246 63.2938 81.2861 63.8941C81.7995 65.0724 82.7398 66.0128 83.9182 66.5262C84.5185 66.7877 84.5185 67.6391 83.9182 67.9006C82.7399 68.414 81.7995 69.3544 81.2861 70.5327Z" fill="#B3E7FF"/>
<path d="M37.0712 81.767C36.6222 82.7976 35.1604 82.7976 34.7115 81.767C33.8303 79.7438 32.2158 78.1294 30.1926 77.2481C29.162 76.7992 29.162 75.3374 30.1926 74.8885C32.2158 74.0073 33.8303 72.3928 34.7115 70.3696C35.1604 69.339 36.6222 69.339 37.0712 70.3696C37.9524 72.3928 39.5668 74.0073 41.59 74.8885C42.6206 75.3374 42.6206 76.7992 41.59 77.2481C39.5668 78.1295 37.9524 79.744 37.0712 81.767Z" fill="#76B7EB"/>
<path d="M93.4531 55.9105C92.9086 55.8422 92.4093 56.2286 92.3407 56.7747C90.4632 71.7188 85.1394 85.8215 79.093 91.8677C77.8517 93.1089 76.2035 93.7913 74.4487 93.7913H74.422C70.8319 93.7773 67.8973 90.7706 67.8802 87.0892C67.8447 79.3827 64.1192 77.7651 61.0001 77.7651C57.8811 77.7651 54.1556 79.3827 54.12 87.0891C54.103 90.7705 51.1682 93.777 47.5781 93.7913H47.5514C45.7968 93.7913 44.1484 93.1088 42.907 91.8677C42.5383 91.499 42.1651 91.0927 41.7979 90.6603C41.4417 90.241 40.8132 90.1898 40.3938 90.5458C39.9745 90.9019 39.9231 91.5305 40.2791 91.9497C40.6813 92.4232 41.0914 92.8697 41.4982 93.2764C43.116 94.8941 45.2641 95.7835 47.551 95.7835H47.586C52.2651 95.7649 56.09 91.8687 56.112 87.0984C56.1459 79.7573 59.7994 79.7573 60.9999 79.7573C62.2004 79.7573 65.854 79.7573 65.8878 87.0984C65.91 91.8689 69.7349 95.7651 74.414 95.7835H74.4488C76.7356 95.7835 78.8841 94.8941 80.5016 93.2764C83.7376 90.0404 86.7752 84.746 89.286 77.9652C91.6287 71.6387 93.4154 64.2013 94.3172 57.0228C94.3859 56.4772 93.999 55.9791 93.4531 55.9105ZM48.4515 50.8156C49.0016 50.8156 49.4476 50.3698 49.4476 49.8195V47.7016C49.4476 47.1513 49.0016 46.7055 48.4515 46.7055C47.9014 46.7055 47.4554 47.1513 47.4554 47.7016V49.8195C47.4554 50.3697 47.9013 50.8156 48.4515 50.8156ZM78.9987 70.9311C79.2762 71.568 79.9044 71.9796 80.5992 71.9796C81.2941 71.9796 81.9222 71.5679 82.1996 70.9309C82.6139 69.9803 83.3656 69.2285 84.3164 68.8144C84.9534 68.537 85.365 67.9088 85.365 67.2139C85.365 66.5193 84.9534 65.891 84.3164 65.6135C83.3657 65.1994 82.614 64.4478 82.1998 63.497C81.9223 62.86 81.2941 62.4484 80.5992 62.4484C79.9046 62.4484 79.2763 62.86 78.9988 63.4971C78.5847 64.4478 77.8331 65.1994 76.8822 65.6135C76.2452 65.891 75.8336 66.5192 75.8336 67.2139C75.8336 67.9088 76.2452 68.537 76.8822 68.8144C77.8329 69.2284 78.5845 69.9801 78.9987 70.9311ZM80.5991 64.757C81.1621 65.7998 82.0132 66.651 83.056 67.2139C82.013 67.7769 81.1621 68.6278 80.5991 69.6708C80.0361 68.6278 79.1852 67.7768 78.1422 67.2139C79.1852 66.6509 80.0362 65.8 80.5991 64.757ZM92.383 37.3638C92.4314 37.3413 92.4792 37.3179 92.5283 37.2965C93.2718 36.9727 93.7335 36.2679 93.7335 35.457C93.7334 34.6462 93.2714 33.9415 92.5283 33.6179C91.1667 33.0247 90.0902 31.9481 89.497 30.5864C89.1732 29.843 88.4685 29.3814 87.6577 29.3814C86.8469 29.3814 86.1422 29.8432 85.8184 30.5864C85.7978 30.6335 85.7753 30.6795 85.7537 30.726C82.9844 29.0936 79.8613 28.2276 76.6554 28.2174C73.4445 28.2097 70.2896 29.0343 67.5185 30.6091C63.4977 32.8935 58.5024 32.8935 54.4816 30.6091C51.7268 29.0438 48.5888 28.2173 45.4025 28.2173C45.3833 28.2173 45.364 28.2174 45.3448 28.2174C40.5093 28.2326 35.9371 30.1662 32.4705 33.6618C28.9169 37.2454 26.9742 41.9791 27.0003 46.9916C27.043 55.2095 28.5433 64.7316 31.1254 73.2322C30.7106 73.5204 30.266 73.7706 29.7948 73.9758C28.9489 74.3441 28.4235 75.1461 28.4233 76.0688C28.4233 76.9913 28.9488 77.7935 29.7946 78.1621C31.5929 78.9454 33.0147 80.3671 33.798 82.1654C34.0347 82.709 34.4511 83.1192 34.9628 83.3436C35.7643 85.0416 36.6067 86.6157 37.4712 88.0247C37.6591 88.3311 37.9863 88.4999 38.3212 88.4999C38.4988 88.4999 38.6786 88.4525 38.8412 88.3528C39.3101 88.0651 39.457 87.4518 39.1692 86.9828C38.4623 85.8307 37.7692 84.5595 37.1013 83.195C37.4832 82.9573 37.7925 82.6053 37.984 82.1656C38.7673 80.3673 40.1891 78.9455 41.9875 78.1622C42.8334 77.7938 43.3588 76.9916 43.3588 76.0689C43.3588 75.1463 42.8333 74.3444 41.9875 73.9759C40.1892 73.1927 38.7675 71.771 37.9841 69.9726C37.6157 69.1267 36.8137 68.6013 35.8911 68.6013C34.9685 68.6013 34.1664 69.1267 33.798 69.9726C33.5238 70.6021 33.1697 71.1842 32.7503 71.7103C30.3942 63.6318 29.0326 54.7124 28.9923 46.9812C28.9689 42.5017 30.7065 38.2698 33.885 35.0647C36.9764 31.9473 41.0484 30.2232 45.3509 30.2096C45.3681 30.2096 45.3851 30.2095 45.4024 30.2095C48.2441 30.2095 51.0422 30.9462 53.4973 32.3411C58.1252 34.9707 63.8749 34.9707 68.5025 32.3411C70.9726 30.9377 73.7865 30.2002 76.649 30.2096C79.45 30.2184 82.1814 30.9617 84.614 32.3658C84.0957 32.8903 83.4782 33.3166 82.7868 33.6179C82.0434 33.9414 81.5818 34.6462 81.5817 35.457C81.5817 36.2677 82.0434 36.9726 82.7867 37.2965C84.1484 37.8896 85.225 38.9661 85.8181 40.3278C86.1419 41.0712 86.8466 41.5328 87.6574 41.5328C88.4681 41.5328 89.173 41.071 89.4968 40.3278C89.797 39.6385 90.2215 39.0227 90.7437 38.5052C92.2421 41.0875 93.0231 43.995 93.0074 46.9812C92.9988 48.6635 92.9277 50.4234 92.7962 52.2119C92.7559 52.7606 93.168 53.238 93.7166 53.2783C93.7416 53.2801 93.7662 53.2809 93.7907 53.2809C94.3078 53.2809 94.7447 52.8815 94.7831 52.3579C94.9179 50.5244 94.9908 48.7189 94.9997 46.9916C95.0175 43.5937 94.1137 40.2878 92.383 37.3638ZM35.6246 70.7681C35.6875 70.6236 35.8043 70.5935 35.8913 70.5935C35.9781 70.5935 36.095 70.6237 36.1578 70.7681C37.1429 73.0294 38.9307 74.8173 41.1921 75.8022C41.3363 75.8652 41.3667 75.9819 41.3667 76.0688C41.3667 76.1558 41.3363 76.2727 41.1921 76.3356C38.9308 77.3206 37.1429 79.1085 36.1578 81.3698C36.0949 81.5143 35.9781 81.5444 35.8913 81.5444C35.8816 81.5444 35.8715 81.5439 35.8613 81.5429C35.8453 81.5399 35.8294 81.5372 35.8132 81.535C35.7432 81.5181 35.6699 81.4737 35.6246 81.3696C34.6395 79.1082 32.8517 77.3204 30.5905 76.3355C30.4461 76.2725 30.4157 76.1557 30.4157 76.0687C30.4157 75.9818 30.4461 75.8651 30.5903 75.8021C32.8517 74.8173 34.6395 73.0295 35.6246 70.7681ZM91.7327 35.4701C89.9079 36.2648 88.4652 37.7076 87.6705 39.5323L88.5837 39.93L87.6701 39.5388C87.6643 39.5413 87.6507 39.5413 87.6448 39.5323C86.8501 37.7076 85.4072 36.2648 83.576 35.4697C83.5733 35.4641 83.5733 35.4503 83.5825 35.4444C84.9482 34.8496 86.0998 33.8916 86.9263 32.6795C86.9278 32.6774 86.9294 32.6755 86.9308 32.6734C86.9314 32.6726 86.9316 32.672 86.9321 32.6712C87.2075 32.2662 87.4465 31.8331 87.6452 31.3756C87.6507 31.3728 87.6645 31.3732 87.6705 31.3821C88.4653 33.2069 89.9081 34.6497 91.7393 35.4448C91.742 35.4503 91.7418 35.4639 91.7327 35.4701ZM74.5447 49.8195V47.7016C74.5447 47.1513 74.0988 46.7055 73.5486 46.7055C72.9984 46.7055 72.5525 47.1513 72.5525 47.7016V49.8195C72.5525 50.3698 72.9984 50.8156 73.5486 50.8156C74.0988 50.8156 74.5447 50.3697 74.5447 49.8195ZM61.0001 56.0114C63.5206 56.0114 65.5713 53.9606 65.5713 51.4401V48.841C65.5713 47.7535 64.6867 46.869 63.5992 46.869H58.4009C57.3134 46.869 56.4289 47.7535 56.4289 48.841V51.4401C56.4288 53.9606 58.4794 56.0114 61.0001 56.0114ZM58.421 48.8612H63.579V51.4401C63.579 52.8623 62.4221 54.0192 60.9999 54.0192C59.5778 54.0192 58.4208 52.8623 58.4208 51.4401V48.8612H58.421Z" fill="black"/>

</svg>
