<svg width="2560" height="2267" viewBox="0 0 2560 2267" fill="none" xmlns="http://www.w3.org/2000/svg">
<path d="M-45.5 147.5C-45.5 147.5 614.5 -15.4256 961 84.1554C1084.9 119.764 1208.5 -13.6119 1413 1.14531C1601.5 14.7479 1902.73 105.473 1982 104C2201.26 99.927 2556 20 2556 20L2718 2103.5L-17.5 2141L-45.5 147.5Z" fill="url(#paint0_linear)"/>
<path d="M1849.99 1919.66C1920.5 1928.7 2483.41 1888.58 2656.19 1873.43C2682.04 1871.17 2705.74 1888.47 2711.25 1913.82L2769.95 2183.51C2776.68 2214.47 2753.29 2243.81 2721.61 2244.14L741.018 2264.87C717.883 2265.12 374.31 2174.56 397.029 2170.18L400.198 2169.57C457.125 2158.62 585.102 2134 576.11 2094.62C564.137 2042.18 612.84 1977.12 710.95 1950.29C809.061 1923.47 883.166 1959.34 937.427 1959.34C1032.94 1959.34 1039.66 1915.21 1129.49 1906.9C1175.02 1902.69 1329.42 1919.66 1416.87 1935.96C1504.33 1952.26 1588.63 1900.87 1649.05 1896.27C1728.17 1890.25 1750.56 1906.9 1849.99 1919.66Z" fill="url(#paint1_linear)" fill-opacity="0.4"/>
<path d="M614.246 1185.86C592.581 1190.99 559.759 1189.09 529.627 1185.11C498.97 1181.06 469.606 1202.67 467.528 1233.52L453.594 1440.4C451.649 1469.27 474.544 1493.76 503.481 1493.76H1121.43C1144.02 1493.76 1333.28 1415.57 1312 1408C1285.5 1398.57 1221.6 1376.58 1226 1341C1231.75 1294.5 1208.36 1236.81 1161.25 1213.03C1114.13 1189.25 1078.54 1221.05 1052.48 1221.05C1006.62 1221.05 1003.39 1181.92 960.252 1174.55C938.385 1170.82 864.239 1185.86 822.241 1200.32C780.242 1214.77 739.756 1169.2 710.743 1165.13C672.744 1159.79 661.995 1174.55 614.246 1185.86Z" fill="url(#paint2_linear)" fill-opacity="0.8"/>
<defs>
<linearGradient id="paint0_linear" x1="1280" y1="0.468279" x2="1280" y2="2109" gradientUnits="userSpaceOnUse">
<stop stop-color="#BBDCE3"/>
<stop offset="0.0931146" stop-color="#CFF4F2"/>
</linearGradient>
<linearGradient id="paint1_linear" x1="1343.45" y1="1895" x2="1343.45" y2="2267.17" gradientUnits="userSpaceOnUse">
<stop stop-color="white"/>
<stop offset="1" stop-color="white" stop-opacity="0"/>
</linearGradient>
<linearGradient id="paint2_linear" x1="857.5" y1="1164" x2="857.5" y2="1494" gradientUnits="userSpaceOnUse">
<stop stop-color="white"/>
<stop offset="1" stop-color="white" stop-opacity="0"/>
</linearGradient>
</defs>
</svg>
