<svg width="21" height="18" viewBox="0 0 21 18" fill="none" xmlns="http://www.w3.org/2000/svg">
<path d="M20.7034 2.60277C19.9478 2.9342 19.1427 3.15389 18.3034 3.26056C19.1669 2.74499 19.8259 1.93482 20.1358 0.958286C19.3307 1.4383 18.4418 1.77735 17.4945 1.96656C16.73 1.15258 15.6404 0.648438 14.4518 0.648438C12.1458 0.648438 10.2892 2.52023 10.2892 4.81488C10.2892 5.14505 10.3172 5.46252 10.3857 5.76474C6.92279 5.59585 3.85859 3.93613 1.80013 1.40782C1.44076 2.03133 1.22996 2.74499 1.22996 3.51326C1.22996 4.95584 1.97284 6.2346 3.08016 6.97493C2.41094 6.96223 1.75442 6.76794 1.19821 6.4619C1.19821 6.4746 1.19821 6.49111 1.19821 6.50762C1.19821 8.53179 2.64206 10.2131 4.53543 10.6004C4.19638 10.6931 3.82685 10.7376 3.44335 10.7376C3.17667 10.7376 2.90746 10.7223 2.65476 10.6664C3.19445 12.316 4.72591 13.5287 6.54691 13.5681C5.12973 14.6767 3.33033 15.3446 1.38235 15.3446C1.04075 15.3446 0.713125 15.3294 0.385498 15.2875C2.23062 16.4774 4.41734 17.1568 6.77548 17.1568C14.4404 17.1568 18.631 10.8074 18.631 5.30378C18.631 5.11965 18.6246 4.94187 18.6158 4.76536C19.4424 4.17868 20.1371 3.44596 20.7034 2.60277Z" fill="white"/>
</svg>
