<svg width="89" height="74" viewBox="0 0 89 74" fill="none" xmlns="http://www.w3.org/2000/svg">
<path d="M44.6865 72.9653C44.5893 73.0207 44.5058 73.0679 44.4366 73.1069C44.3672 73.0673 44.2835 73.0192 44.1858 72.9629C43.8625 72.7762 43.3874 72.4988 42.7822 72.1368C41.5719 71.4128 39.8415 70.3506 37.7645 68.9998C33.6096 66.2975 28.0723 62.4429 22.5375 57.8316C17.0002 53.2184 11.4801 47.8599 7.34796 42.152C3.21194 36.4387 0.5 30.4216 0.5 24.4808C0.5 11.2311 11.1044 0.50074 24.1726 0.500755L24.1765 0.500724C32.175 0.437553 39.6555 4.51168 44.0139 11.3105L44.4324 11.9633L44.8544 11.3127C49.2433 4.54581 56.7057 0.481386 64.6951 0.500737C77.7372 0.565381 88.3051 11.2582 88.3695 24.4816C88.3693 30.5136 85.6561 36.5758 81.5212 42.3044C77.3895 48.0285 71.8699 53.3754 66.3331 57.9658C60.7987 62.5543 55.2618 66.375 51.1072 69.0491C49.0303 70.3858 47.3001 71.4353 46.0899 72.1501C45.4848 72.5075 45.0098 72.7812 44.6865 72.9653Z" stroke="#222222"/>
</svg>
