<svg width="92" height="81" viewBox="0 0 92 81" fill="none" xmlns="http://www.w3.org/2000/svg">
<path d="M23.5 46.041C23.5 64.0501 38.0164 78.6445 55.9174 78.6445C57.5048 78.6445 60.2535 78.8371 63.5313 79.0747C63.7604 79.0913 63.9921 79.1082 64.2263 79.1252C67.3549 79.3524 70.9262 79.6118 74.4625 79.7888C78.2653 79.9792 82.0144 80.0736 85.1176 79.9317C86.6695 79.8607 88.0493 79.7312 89.1881 79.5279C89.9912 79.3846 90.6526 79.2083 91.1632 79.0018C90.8639 78.6893 90.442 78.2408 89.945 77.6905C88.9449 76.5831 87.6369 75.0588 86.4121 73.397C85.1908 71.7402 84.0349 69.9236 83.3567 68.234C82.6907 66.5746 82.4226 64.8788 83.2383 63.5975C86.4643 58.5301 88.3348 52.5061 88.3348 46.041C88.3348 28.0319 73.8184 13.4375 55.9174 13.4375C38.0164 13.4375 23.5 28.0319 23.5 46.041Z" stroke="#2E2E2E"/>
<path d="M77.8439 37.375C77.8439 57.7405 61.3344 74.25 40.9689 74.25C39.1696 74.25 36.0519 74.4672 32.329 74.7355C32.0691 74.7542 31.8061 74.7732 31.5404 74.7924C27.9881 75.049 23.9321 75.342 19.9159 75.5419C15.5974 75.7568 11.338 75.8635 7.81114 75.7032C6.04747 75.623 4.47748 75.4765 3.18034 75.2463C2.22049 75.076 1.43407 74.8638 0.835755 74.6121C0.854377 74.5928 0.873479 74.573 0.893048 74.5527C1.23294 74.2 1.71434 73.6913 2.28209 73.0662C3.41669 71.8169 4.90032 70.0975 6.28933 68.2237C7.67468 66.3547 8.98347 64.3088 9.7505 62.4085C10.5053 60.5385 10.7991 58.6497 9.89041 57.2304C6.22117 51.4993 4.09386 44.6863 4.09386 37.375C4.09386 17.0095 20.6034 0.5 40.9689 0.5C61.3344 0.5 77.8439 17.0095 77.8439 37.375Z" fill="#FFF7E4" stroke="#2E2E2E"/>
<rect x="21.5625" y="27.3125" width="37.375" height="1.80392" rx="0.901961" fill="#222222"/>
<rect x="21.5625" y="35.9375" width="37.375" height="1.80392" rx="0.901961" fill="#222222"/>
<rect x="21.5625" y="44.5625" width="37.375" height="1.80392" rx="0.901961" fill="#222222"/>
</svg>
