<svg width="117" height="46" viewBox="0 0 117 46" fill="none" xmlns="http://www.w3.org/2000/svg">
<path d="M82.6373 28.788C53.3469 30.9421 21.6645 40.2972 9.74326 44.0988C7.15343 44.9247 4.41468 43.2834 3.94507 40.6059C3.55287 38.3698 4.92244 36.2013 7.1101 35.5946L38.8352 26.7958L60.9566 22.9158L81.0721 20.3443C82.1877 20.2017 83.2821 19.9251 84.3316 19.5207L107.962 10.4131C110.378 9.48204 113.087 10.7158 113.971 13.1494C114.769 15.3471 113.796 17.7768 111.657 18.7214C107.068 20.7479 98.3036 24.3309 85.8038 28.2002C84.775 28.5187 83.7113 28.709 82.6373 28.788Z" stroke="#222222"/>
<rect x="79.6577" y="10.7246" width="15.3054" height="9.69197" rx="2" transform="rotate(-20.2466 79.6577 10.7246)" stroke="#222222"/>
<rect width="11.7805" height="9.69197" rx="2" transform="matrix(-0.938212 0.346062 0.346062 0.938212 105.07 1.35156)" stroke="#222222"/>
</svg>
