<svg width="72" height="90" viewBox="0 0 72 90" fill="none" xmlns="http://www.w3.org/2000/svg">
<rect width="51.4998" height="50.1727" rx="8" transform="matrix(0.942855 0.333204 -0.393959 0.919128 22.6599 0)" stroke="#2B2B2B"/>
<rect x="0.875488" y="14.7251" width="52.1047" height="74.1223" rx="7" fill="#FFF7E4" stroke="#4C4945"/>
<path d="M27.236 62.9792C27.147 63.0393 27.0686 63.0915 27.0019 63.1356C26.9348 63.0907 26.8561 63.0375 26.7665 62.9763C26.4431 62.7553 25.9798 62.4304 25.4232 62.0169C24.3092 61.1891 22.826 60.0093 21.3447 58.5995C19.8617 57.1879 18.3927 55.5569 17.2974 53.8282C16.1997 52.096 15.5 50.3017 15.5 48.5532C15.5 44.5871 18.2648 41.5002 21.528 41.5002L21.5325 41.5002C23.5333 41.4822 25.4392 42.6465 26.564 44.6511L26.9975 45.4237L27.4348 44.6533C28.5677 42.6577 30.4698 41.4949 32.4699 41.5002C35.7281 41.519 38.4829 44.5964 38.5 48.5544C38.4997 50.3315 37.799 52.1398 36.7023 53.8756C35.6073 55.6089 34.1388 57.236 32.6562 58.6403C31.1754 60.0429 29.6925 61.212 28.5788 62.031C28.0224 62.4401 27.5592 62.7611 27.236 62.9792Z" stroke="#222222"/>
</svg>
