<svg width="936" height="360" viewBox="0 0 936 360" fill="none" xmlns="http://www.w3.org/2000/svg">
<path d="M175.508 23.8613C150.753 29.75 112.594 27.1529 78.522 22.3513C47.8752 18.0324 18.4773 39.6828 16.4062 70.563L0.577935 306.557C-1.35814 335.424 21.5348 359.903 50.4659 359.903H726.444C751.131 359.903 957.102 274.608 933.853 266.304C905.053 256.017 835.603 232.017 840.385 193.18C846.634 142.43 821.215 79.4664 770.008 53.5103C718.801 27.5542 680.123 62.2661 651.802 62.2661C601.951 62.2661 598.444 19.5613 551.561 11.5169C527.795 7.43916 447.211 23.8613 401.565 39.6347C355.919 55.4081 311.918 5.6807 280.385 1.22994C239.087 -4.59938 227.404 11.5169 175.508 23.8613Z" fill="url(#paint0_linear)" fill-opacity="0.8"/>
<defs>
<linearGradient id="paint0_linear" x1="439.886" y1="0" x2="439.886" y2="360.165" gradientUnits="userSpaceOnUse">
<stop stop-color="#EDEDED"/>
<stop offset="1" stop-color="white" stop-opacity="0"/>
</linearGradient>
</defs>
</svg>
