<svg width="30" height="29" viewBox="0 0 30 29" fill="none" xmlns="http://www.w3.org/2000/svg">
<path d="M17.4943 4.65813C18.0791 4.06729 19.0876 4.40646 19.1965 5.23059L20.0099 11.387C20.0532 11.7152 20.2562 12.0006 20.5519 12.1494L26.0995 14.94C26.8421 15.3136 26.8312 16.3775 26.081 16.7357L20.4772 19.4118C20.1785 19.5544 19.9698 19.8356 19.9197 20.1628L18.9799 26.3013C18.8541 27.123 17.8389 27.4414 17.2664 26.8386L12.9897 22.3361C12.7617 22.0961 12.4298 21.9844 12.1031 22.0379L5.9747 23.041C5.15432 23.1753 4.5378 22.3081 4.93412 21.5774L7.89474 16.1186C8.05255 15.8276 8.05615 15.4774 7.90435 15.1833L5.05654 9.66482C4.67532 8.92609 5.30953 8.07178 6.12697 8.22289L12.2334 9.35175C12.5589 9.41192 12.8931 9.30712 13.126 9.07185L17.4943 4.65813Z" fill="#FFF6AA"/>
</svg>
