<svg width="819" height="344" viewBox="0 0 819 344" fill="none" xmlns="http://www.w3.org/2000/svg">
<path d="M88.482 22.8008C65.2373 28.3008 29.692 26.054 -2.46494 21.6652C-33.0991 17.4844 -62.4483 39.1088 -64.5283 69.9569L-79.4018 290.544C-81.3486 319.416 -58.4534 343.908 -29.5152 343.908H618.084C641.634 343.908 839.168 262.353 816.977 254.468C789.31 244.639 722.594 221.705 727.188 184.594C733.191 136.1 708.772 75.9346 659.581 51.132C610.389 26.3295 573.234 59.4987 546.028 59.4987C498.139 59.4987 494.77 18.6919 449.732 11.0051C426.902 7.10853 349.49 22.8008 305.64 37.8732C261.791 52.9455 219.522 5.42822 189.231 1.17527C149.558 -4.39496 138.334 11.0051 88.482 22.8008Z" fill="url(#paint0_linear)" fill-opacity="0.2"/>
<defs>
<linearGradient id="paint0_linear" x1="342.453" y1="1.20309e-07" x2="344.537" y2="237.782" gradientUnits="userSpaceOnUse">
<stop stop-color="white"/>
<stop offset="1" stop-color="white" stop-opacity="0"/>
</linearGradient>
</defs>
</svg>
