<svg width="264" height="242" viewBox="0 0 264 242" fill="none" xmlns="http://www.w3.org/2000/svg">
<g clip-path="url(#clip0)">
<path d="M155.762 7.54994C153.438 4.67231 167.258 -10.4894 188.825 12.5626C200.105 24.5992 215.164 49.91 231.463 89.083C241.627 113.527 257.617 150.751 252.845 181.786C249.467 203.817 223.252 214.183 207.108 189.924C197.749 175.907 195.333 118.911 194.217 100.377C193.132 82.2757 179.808 38.8945 172.557 31.4684C166.948 25.7131 167.692 22.2476 155.762 7.54994Z" fill="#E9EBF4"/>
<path d="M164.129 24.4135C162.208 22.2166 172.65 9.8706 190.313 27.4149C199.547 36.5738 215.846 64.0197 224.337 85.1842C232.083 104.554 247.112 135.682 244.261 160.281C242.247 177.733 223.035 185.376 209.835 166.594C202.274 155.857 198.524 110.99 197.13 96.4163C195.736 82.1828 184.022 48.3938 178.073 42.7623C173.487 38.3994 173.952 35.6146 164.129 24.4135Z" fill="#F19CFF"/>
<path opacity="0.05" d="M199.33 160.838C201.189 173.679 203.668 184.757 207.139 189.924C223.283 214.183 249.498 203.817 252.876 181.786C254.394 171.947 253.805 161.457 251.977 150.968C251.977 150.968 242.34 167.181 227.838 168.605C213.336 170.028 199.33 160.838 199.33 160.838Z" fill="#3E214C"/>
<path d="M231.866 157.404C231.123 156.847 230.224 156.599 229.294 156.785C228.613 156.909 227.993 157.218 227.528 157.744C227.28 158.023 227.063 158.332 226.908 158.672C226.63 158.394 226.32 158.177 226.01 158.023C225.39 157.682 224.708 157.589 224.027 157.682C223.097 157.837 222.322 158.363 221.796 159.136C221.3 159.91 221.114 160.869 221.3 161.859C221.486 162.88 222.012 163.747 223.004 164.582C223.872 165.325 225.08 166.037 226.475 166.872C226.939 167.151 227.497 167.46 228.055 167.8C228.21 167.893 228.365 167.924 228.551 167.893C228.737 167.862 228.861 167.769 228.985 167.646C229.387 167.151 229.79 166.655 230.162 166.222C231.185 164.985 232.083 163.933 232.672 162.911C233.323 161.797 233.54 160.807 233.354 159.786C233.106 158.796 232.61 157.961 231.866 157.404Z" fill="white"/>
<path d="M155.173 90.5373C162.052 107.865 174.819 120.706 186.315 134.011C200.755 150.751 240.388 164.489 258.391 148.709C264.682 143.201 264.434 137.105 263.628 132C261.738 120.087 253.836 116.962 243.146 117.457C232.455 117.983 223.004 120.923 212.964 116.931C198.029 110.99 172.96 98.2419 162.858 86.2982C159.481 87.8453 158.489 88.7117 155.173 90.5373Z" fill="#F2F4F9"/>
<path d="M258.918 133.485C259.848 139.364 254.239 144.439 246.182 146.574C238.405 148.616 231.835 149.018 230.193 138.374C228.551 127.73 234.903 125.873 242.898 125.316C250.552 124.79 258.019 127.637 258.918 133.485Z" fill="#F19CFF"/>
<path d="M250.676 138.281L250.366 136.27C250.335 136.084 250.149 135.961 249.963 135.992L248.94 136.146L249.374 138.838L250.397 138.684C250.583 138.653 250.707 138.467 250.676 138.281Z" fill="white"/>
<path d="M248.754 139.148L248.259 136.053L246.059 135.373L246.864 140.478L248.754 139.148Z" fill="white"/>
<path d="M239.985 136.208L238.932 136.363C238.746 136.394 238.622 136.579 238.653 136.765L239.396 141.468C239.427 141.654 239.613 141.778 239.799 141.747L240.853 141.592L239.985 136.208Z" fill="white"/>
<path d="M245.346 135.342L240.667 136.084L241.534 141.437L246.213 140.695L245.346 135.342ZM241.72 138.684C241.596 137.941 242.092 137.26 242.836 137.136C243.115 137.106 243.424 137.136 243.672 137.26L244.881 137.879C245.067 137.972 245.129 138.25 244.974 138.405L244.044 139.395C243.827 139.612 243.579 139.736 243.269 139.797C242.557 139.921 241.844 139.426 241.72 138.684Z" fill="white"/>
<path d="M243.58 138.931L244.199 138.281L243.394 137.848C243.27 137.786 243.115 137.755 242.96 137.786C242.588 137.848 242.34 138.188 242.402 138.56C242.464 138.931 242.805 139.179 243.177 139.117C243.332 139.117 243.456 139.055 243.58 138.931Z" fill="white"/>
<path d="M249.87 133.238L249.777 132.557L248.476 132.773C247.546 132.928 246.585 132.959 245.656 132.866C244.726 132.773 243.765 132.835 242.867 132.959L238.87 133.609C238.498 133.671 238.25 134.011 238.312 134.382C238.374 134.754 238.715 135.001 239.086 134.939L243.084 134.29C244.013 134.135 244.974 134.104 245.904 134.197C246.833 134.29 247.794 134.228 248.723 134.104L249.343 134.011C249.653 133.98 249.932 133.609 249.87 133.238Z" fill="white"/>
<path d="M249.467 130.886C249.436 130.7 249.25 130.577 249.064 130.608L248.042 130.762L248.258 132.093H248.289L249.591 131.876L249.467 130.886Z" fill="white"/>
<path d="M247.422 130.886L246.399 131.041C246.213 131.072 246.089 131.257 246.12 131.443L246.244 132.248C246.709 132.278 247.174 132.248 247.639 132.186L247.422 130.886Z" fill="white"/>
<path opacity="0.05" d="M185.138 28.0647C192.575 44.2475 194.837 56.9648 199.95 64.391C208.006 76.1181 206.922 94.1885 202.119 100.81C200.074 103.595 197.564 105.978 194.713 107.896C194.558 104.987 194.403 102.45 194.279 100.408C193.194 82.3066 179.87 38.9255 172.619 31.4993C171.008 29.8284 169.582 28.0028 168.405 25.9916L168.901 17.3277C168.87 17.2968 180.087 17.0802 185.138 28.0647Z" fill="#3E214C"/>
<path d="M223.843 190.724C224.56 190.197 224.071 188.32 222.752 186.531C221.432 184.742 219.782 183.719 219.066 184.246C218.349 184.773 218.838 186.651 220.157 188.439C221.476 190.228 223.127 191.251 223.843 190.724Z" fill="#F19CFF"/>
<path d="M220.057 193.473C220.774 192.946 220.285 191.069 218.966 189.28C217.646 187.492 215.996 186.469 215.279 186.996C214.563 187.523 215.051 189.4 216.371 191.189C217.69 192.977 219.34 194 220.057 193.473Z" fill="#F19CFF"/>
<path d="M213.482 189.855C214.202 189.332 213.723 187.452 212.413 185.656C211.103 183.861 209.458 182.829 208.738 183.352C208.019 183.875 208.498 185.755 209.808 187.551C211.118 189.347 212.763 190.378 213.482 189.855Z" fill="#F19CFF"/>
<path d="M129.206 7.54994C131.53 4.67231 117.71 -10.4894 96.1428 12.5626C84.8635 24.5992 69.8037 49.91 53.5045 89.083C43.3407 113.527 27.3514 150.751 32.0924 181.786C35.47 203.817 61.6851 214.183 77.8294 189.924C87.1565 175.907 89.5735 118.911 90.72 100.377C91.8046 82.2757 105.129 38.8945 112.38 31.4684C118.02 25.7131 117.276 22.2476 129.206 7.54994Z" fill="#E9EBF4"/>
<path d="M120.809 24.4135C122.73 22.2166 112.287 9.8706 94.6247 27.4149C85.3906 36.5738 69.0914 64.0197 60.6009 85.1842C52.8541 104.554 37.8253 135.682 40.6762 160.281C42.6903 177.733 61.9023 185.376 75.1029 166.594C82.6637 155.857 86.3822 110.99 87.8076 96.4163C89.202 82.1828 100.915 48.3938 106.865 42.7623C111.482 38.3994 110.986 35.6146 120.809 24.4135Z" fill="#F19CFF"/>
<path opacity="0.05" d="M57.1302 168.605C42.6282 167.181 32.9912 150.968 32.9912 150.968C31.163 161.457 30.5742 171.947 32.0926 181.786C35.4702 203.817 61.6853 214.183 77.8295 189.924C81.3001 184.757 83.7791 173.679 85.6383 160.838C85.6383 160.838 71.6321 170.028 57.1302 168.605Z" fill="#3E214C"/>
<path opacity="0.05" d="M99.8305 28.0647C92.3936 44.2475 90.1316 56.9648 85.0187 64.391C76.962 76.1181 78.0776 94.1885 82.8496 100.81C84.8947 103.595 87.4047 105.978 90.2555 107.896C90.4104 104.987 90.5654 102.45 90.6893 100.408C91.7739 82.3066 105.098 38.9255 112.349 31.4993C113.961 29.8284 115.386 28.0028 116.564 25.9916L116.068 17.3277C116.099 17.2968 104.85 17.0802 99.8305 28.0647Z" fill="#3E214C"/>
<path d="M113.277 92.8848C113.277 92.8848 77.6549 111.78 59.0699 102.822C46.537 96.787 43.2094 87.7591 36.6132 79.9714C29.9749 72.1069 21.0861 68.0677 10.4827 74.0701C5.89032 76.6331 1.42772 82.941 1.25031 89.4976C0.753508 108.275 35.907 136.822 65.9028 134.597C89.7274 132.832 122.144 101.076 122.144 101.076L113.277 92.8848Z" fill="#F2F4F9"/>
<path d="M53.7833 164.458L54.651 164.242L55.2087 166.594C55.3637 167.243 56.0144 167.646 56.6651 167.491L59.0201 166.934L59.2371 167.8C59.423 168.605 60.2286 169.1 61.0653 168.914C61.871 168.729 62.3668 167.924 62.1808 167.089L61.9639 166.222L64.3189 165.665C64.9697 165.511 65.3725 164.861 65.2176 164.211L64.6908 161.983L63.8231 162.2C62.9555 162.416 62.0879 161.859 61.871 160.993C61.654 160.127 62.2118 159.26 63.0795 159.044L63.9471 158.827L63.4203 156.599C63.2654 155.949 62.6147 155.547 61.9639 155.702L59.7328 156.228L59.9498 157.094C60.1667 157.961 59.6089 158.827 58.7413 159.044C57.8736 159.26 57.006 158.703 56.7891 157.837L56.5722 156.97L54.3411 157.496C53.6904 157.651 53.2875 158.301 53.4425 158.951L54.0002 161.302L53.1326 161.519C52.3269 161.705 51.8311 162.509 52.0171 163.345C52.172 164.18 52.9777 164.675 53.7833 164.458Z" fill="white"/>
<path d="M183.961 131.35C175.687 115.879 166.918 90.9395 166.918 90.9395L141.198 98.5513L115.479 90.9395C115.479 90.9395 106.679 115.879 98.4361 131.35C92.8584 141.716 71.3223 206.262 141.167 206.262C211.012 206.262 189.507 141.716 183.961 131.35Z" fill="#E9EBF4"/>
<path d="M171.937 143.882C165.988 134.444 159.666 100.253 159.666 100.253L141.167 94.4669L122.668 100.253C122.668 100.253 116.347 134.444 110.428 143.882C106.431 150.194 90.9681 190.203 141.167 190.203C191.366 190.203 175.904 150.225 171.937 143.882Z" fill="#F2F4F9"/>
<path opacity="0.05" d="M106.865 92.8579C106.865 92.8579 112.009 107.432 142.5 107.432C172.991 107.432 173.642 93.9718 173.642 93.9718L106.865 92.8579Z" fill="#3E214C"/>
<path d="M191.521 50.5597C184.797 42.886 188.143 34.8101 177.67 18.6272C173.301 11.8818 166.545 7.82837 160.131 5.41487C149.007 1.29954 136.767 1.29954 125.642 5.41487C119.228 7.82837 112.473 11.8818 108.104 18.6272C97.6301 34.8101 100.977 42.886 94.2526 50.5907C85.6071 60.4613 84.4606 83.2039 96.2047 89.5161C101.72 92.4866 109.901 95.1167 119.445 97.0042C134.939 100.067 150.866 100.067 166.329 97.0042C175.873 95.1167 184.177 92.6413 189.569 89.5161C200.631 83.1111 200.166 60.4613 191.521 50.5597Z" fill="#E9EBF4"/>
<path d="M192.946 53.1898C187.617 49.0436 183.898 48.7032 179.684 49.353C152.229 53.5611 159.418 44.2166 142.747 44.2166C126.076 44.2166 133.265 53.5921 105.811 49.353C101.596 48.7032 97.878 49.0126 92.5482 53.1898C82.1986 61.2658 84.4296 83.173 96.1737 89.4852C101.689 92.4557 109.87 95.0858 119.414 96.9732C127.099 98.4894 134.908 99.263 142.747 99.263C150.587 99.263 158.396 98.4894 166.081 96.9732C175.625 95.0858 183.805 92.4557 189.321 89.4852C201.065 83.173 203.296 61.2658 192.946 53.1898Z" fill="white"/>
<path d="M156.63 74.9423C156.32 74.5401 155.731 74.4782 155.328 74.7876C155.328 74.7876 155.328 74.7876 155.297 74.8186C149.069 79.8622 144.7 76.211 143.677 75.1899V59.3474C143.677 58.8214 143.243 58.4191 142.748 58.4191C142.221 58.4191 141.818 58.8523 141.818 59.3474V75.1899C140.795 76.211 136.426 79.8931 130.198 74.8186C129.795 74.4782 129.206 74.5401 128.865 74.9423C128.524 75.3446 128.586 75.9325 128.989 76.2729C131.778 78.5626 134.319 79.3052 136.457 79.3052C138.781 79.2743 141.012 78.3769 142.748 76.8608C144.483 78.4079 146.714 79.2743 149.038 79.3052C151.176 79.3052 153.686 78.5316 156.506 76.2729C156.909 75.9634 156.971 75.3755 156.63 74.9423C156.661 74.9423 156.63 74.9423 156.63 74.9423Z" fill="#51535B"/>
<path d="M122.141 43.0717C121.614 42.6076 121.149 42.0197 120.809 41.4009C120.468 40.782 120.251 40.1013 120.189 39.3896C120.127 38.7089 120.282 38.0281 120.592 37.4093C120.87 36.8523 121.242 36.3263 121.707 35.8931C121.397 36.4191 121.18 36.9761 121.056 37.564C120.932 38.121 120.994 38.6779 121.18 39.204C121.366 39.699 121.645 40.1632 122.017 40.5345C122.389 40.9058 122.792 41.2152 123.256 41.4318C123.752 41.6484 123.969 42.2363 123.752 42.7314C123.535 43.2265 122.947 43.443 122.451 43.2264C122.296 43.1955 122.234 43.1646 122.141 43.0717Z" fill="#51535B"/>
<path d="M122.978 43.9691C122.017 43.9072 121.057 43.6906 120.158 43.2883C119.259 42.917 118.454 42.3601 117.803 41.6484C117.183 40.9677 116.75 40.1013 116.533 39.204C116.44 38.7708 116.378 38.3376 116.347 37.8734C116.347 37.4402 116.378 37.007 116.409 36.5739C116.471 37.007 116.502 37.4402 116.595 37.8425C116.688 38.2447 116.811 38.647 116.997 39.0492C117.307 39.7919 117.803 40.4416 118.454 40.9367C119.074 41.4009 119.817 41.7103 120.592 41.865C121.336 42.0197 122.11 42.0506 122.885 41.9888H122.916C123.443 41.9269 123.939 42.2982 124.031 42.8242C124.124 43.3502 123.722 43.8453 123.195 43.9381C123.102 43.9691 123.04 43.9691 122.978 43.9691Z" fill="#51535B"/>
<path d="M125.27 55.2939C129.087 55.2939 132.181 52.2046 132.181 48.3938C132.181 44.5829 129.087 41.4937 125.27 41.4937C121.454 41.4937 118.36 44.5829 118.36 48.3938C118.36 52.2046 121.454 55.2939 125.27 55.2939Z" fill="#85A2FF"/>
<path d="M125.271 53.2827C127.975 53.2827 130.167 51.0939 130.167 48.3938C130.167 45.6938 127.975 43.5049 125.271 43.5049C122.567 43.5049 120.375 45.6938 120.375 48.3938C120.375 51.0939 122.567 53.2827 125.271 53.2827Z" fill="#51535B"/>
<path d="M127.285 46.6301C127.85 46.6301 128.307 46.1729 128.307 45.609C128.307 45.045 127.85 44.5879 127.285 44.5879C126.72 44.5879 126.262 45.045 126.262 45.609C126.262 46.1729 126.72 46.6301 127.285 46.6301Z" fill="white"/>
<path d="M163.354 43.0717C163.88 42.6076 164.345 42.0197 164.686 41.4009C165.027 40.782 165.244 40.1013 165.306 39.3896C165.368 38.7089 165.213 38.0281 164.903 37.4093C164.624 36.8523 164.252 36.3263 163.788 35.8931C164.097 36.4191 164.314 36.9761 164.438 37.564C164.562 38.121 164.531 38.6779 164.345 39.204C164.159 39.699 163.88 40.1632 163.509 40.5345C163.137 40.9058 162.734 41.2152 162.269 41.4318C161.773 41.6484 161.556 42.2363 161.773 42.7314C161.99 43.2265 162.579 43.443 163.075 43.2264C163.199 43.1955 163.261 43.1646 163.354 43.0717Z" fill="#51535B"/>
<path d="M162.517 43.9691C163.478 43.9072 164.438 43.6906 165.368 43.2883C166.267 42.917 167.072 42.3601 167.723 41.6484C168.343 40.9677 168.776 40.1013 168.993 39.204C169.086 38.7708 169.148 38.3376 169.179 37.8734C169.179 37.4402 169.148 37.007 169.117 36.5739C169.055 37.007 169.024 37.4402 168.931 37.8425C168.838 38.2447 168.715 38.647 168.529 39.0492C168.219 39.7919 167.723 40.4416 167.072 40.9367C166.452 41.4009 165.709 41.7103 164.934 41.865C164.19 42.0197 163.416 42.0506 162.641 41.9888H162.61C162.083 41.9269 161.587 42.2982 161.495 42.8242C161.433 43.3502 161.804 43.8453 162.331 43.9381C162.393 43.9691 162.455 43.9691 162.517 43.9691Z" fill="#51535B"/>
<path d="M166.644 51.0197C168.105 47.4988 166.431 43.4624 162.905 42.004C159.379 40.5456 155.336 42.2175 153.876 45.7383C152.415 49.2591 154.09 53.2956 157.616 54.754C161.142 56.2124 165.184 54.5405 166.644 51.0197Z" fill="#85A2FF"/>
<path d="M160.342 53.1211C163.046 53.1211 165.238 50.9323 165.238 48.2322C165.238 45.5321 163.046 43.3433 160.342 43.3433C157.638 43.3433 155.446 45.5321 155.446 48.2322C155.446 50.9323 157.638 53.1211 160.342 53.1211Z" fill="#51535B"/>
<path d="M158.21 46.6301C158.775 46.6301 159.233 46.1729 159.233 45.609C159.233 45.045 158.775 44.5879 158.21 44.5879C157.645 44.5879 157.188 45.045 157.188 45.609C157.188 46.1729 157.645 46.6301 158.21 46.6301Z" fill="white"/>
<path opacity="0.5" d="M142.747 29.3952C142.221 29.3952 141.818 28.993 141.818 28.4669V12.315C141.818 11.789 142.252 11.3868 142.747 11.3868C143.274 11.3868 143.677 11.82 143.677 12.315V28.4669C143.708 28.993 143.274 29.3952 142.747 29.3952C142.778 29.3952 142.747 29.3952 142.747 29.3952Z" fill="#D3D7E2"/>
<path opacity="0.5" d="M152.787 23.2068C152.446 23.2068 152.105 23.0211 151.95 22.7117L147.302 14.0478C147.055 13.5837 147.24 13.0267 147.674 12.7792C148.139 12.5317 148.697 12.7173 148.945 13.1505L153.593 21.8144C153.841 22.2785 153.686 22.8355 153.221 23.083C153.221 23.083 153.221 23.083 153.19 23.083C153.097 23.1758 152.942 23.2068 152.787 23.2068Z" fill="#D3D7E2"/>
<path opacity="0.5" d="M132.149 23.2067C131.995 23.2067 131.84 23.1758 131.716 23.083C131.251 22.8354 131.096 22.2785 131.313 21.8453C131.313 21.8453 131.313 21.8453 131.313 21.8143L135.961 13.1505C136.209 12.6863 136.767 12.5316 137.231 12.7792C137.696 13.0267 137.851 13.5837 137.603 14.0478L132.955 22.7116C132.831 23.0211 132.521 23.2067 132.149 23.2067Z" fill="#D3D7E2"/>
<path d="M142.747 69.249C140.423 67.8257 135.527 64.2363 135.527 61.5134C135.527 60.7399 135.744 59.9972 136.178 59.3784C136.612 58.7286 137.232 58.2335 137.944 57.9551C139.432 57.3981 141.105 57.8003 142.159 58.9761L142.747 59.595L143.336 58.9761C143.863 58.3882 144.545 57.986 145.288 57.8003C146.838 57.3981 148.449 58.0169 149.317 59.3475C149.75 59.9972 149.998 60.7399 149.998 61.5134C149.967 64.1126 145.071 67.7638 142.747 69.249Z" fill="#A94CD8"/>
<path d="M146.187 58.481C147.179 58.481 148.108 58.9761 148.666 59.8115C149.007 60.3066 149.193 60.9255 149.193 61.5443C149.193 63.3699 145.598 66.4951 142.748 68.3826C139.835 66.526 136.333 63.4937 136.333 61.5443V61.5134C136.333 60.9255 136.519 60.3376 136.86 59.8425C137.201 59.3474 137.697 58.9452 138.254 58.7286C138.595 58.6048 138.967 58.5429 139.339 58.5429C139.587 58.5429 139.835 58.5738 140.052 58.6357C140.64 58.7904 141.198 59.0999 141.601 59.564L142.748 60.8326L143.894 59.564C144.297 59.0999 144.855 58.7904 145.443 58.6357C145.691 58.5738 145.908 58.5429 146.156 58.5429L146.187 58.481ZM146.125 56.9648C145.753 56.9648 145.381 56.9958 145.041 57.0886C144.142 57.3052 143.305 57.8003 142.686 58.481C141.415 57.0577 139.401 56.5935 137.604 57.2433C136.736 57.5837 135.992 58.1716 135.497 58.9451C134.97 59.7187 134.691 60.616 134.691 61.5443C134.691 65.5359 142.686 70.2081 142.686 70.2081C142.686 70.2081 150.68 65.3502 150.68 61.5443C150.68 60.616 150.401 59.7187 149.875 58.9451C149.038 57.7075 147.644 56.9648 146.156 56.9339L146.125 56.9648Z" fill="#51535B"/>
<path opacity="0.5" d="M101.751 63.5555C105.79 63.5555 109.064 61.0204 109.064 57.8931C109.064 54.7658 105.79 52.2307 101.751 52.2307C97.7126 52.2307 94.4385 54.7658 94.4385 57.8931C94.4385 61.0204 97.7126 63.5555 101.751 63.5555Z" fill="#F19CFF"/>
<path opacity="0.5" d="M183.744 63.5555C187.782 63.5555 191.057 61.0204 191.057 57.8931C191.057 54.7658 187.782 52.2307 183.744 52.2307C179.705 52.2307 176.431 54.7658 176.431 57.8931C176.431 61.0204 179.705 63.5555 183.744 63.5555Z" fill="#F19CFF"/>
<path d="M31.1866 87.2557C36.2889 93.6413 39.2308 99.6879 29.8446 105.722C20.4584 111.757 16.2254 106.591 12.4353 99.363C8.52757 91.8747 8.60542 84.2254 13.786 80.8666C18.9665 77.5078 26.3208 81.1645 31.1866 87.2557Z" fill="#F19CFF"/>
<path d="M126.665 189.181C115.541 187.48 104.695 182.838 98.0332 174.391C88.985 179.125 78.0156 182.807 69.8969 178.847C53.3808 170.833 35.8731 183.333 32.6814 200.383C29.4898 217.432 41.8536 235.688 61.2515 241.505C80.6495 247.322 138.038 198.093 138.038 198.093C138.038 198.093 132.429 195.556 126.665 189.181Z" fill="#E9EBF4"/>
<path d="M74.3898 198.959C83.7789 208.923 89.3566 218.453 74.6377 229.994C63.7612 238.534 51.9861 233.274 44.7042 221.671C37.1743 209.696 36.2447 196.917 44.4563 190.636C52.6679 184.354 65.4345 189.46 74.3898 198.959Z" fill="#F19CFF"/>
<path d="M155.669 189.181C166.794 187.48 177.639 182.838 184.301 174.391C193.349 179.125 204.319 182.776 212.438 178.847C228.954 170.833 246.461 183.333 249.653 200.383C252.845 217.432 240.481 235.688 221.083 241.505C201.685 247.322 144.297 198.093 144.297 198.093C144.297 198.093 149.906 195.556 155.669 189.181Z" fill="#E9EBF4"/>
<path d="M208.471 198.309C199.082 208.273 193.504 217.803 208.223 229.345C219.1 237.885 230.875 232.625 238.157 221.021C245.687 209.046 246.616 196.267 238.405 189.986C230.193 183.705 217.396 188.81 208.471 198.309Z" fill="#F19CFF"/>
<path d="M27.1302 94.4867C27.4995 92.2394 25.9832 90.1537 23.774 89.7696C26.0855 91.8929 25.7309 95.6283 23.0474 97.2998C23.009 97.3208 23.3164 97.1522 22.069 97.8863C23.1562 98.1378 24.2763 97.9473 25.1865 97.3732L28.464 95.326C28.6946 95.1995 28.6333 94.8591 28.3659 94.7814L27.1302 94.4867Z" fill="white"/>
<path d="M22.7494 96.7582C24.6853 95.5467 25.308 92.9857 24.101 91.0543C22.8941 89.1228 20.3332 88.5076 18.3973 89.7191C16.4614 90.9306 15.8387 93.4915 17.0457 95.423C17.567 96.2842 18.3835 96.9086 19.3344 97.185L19.0275 98.4506C18.9577 98.6884 19.2497 98.9023 19.4803 98.7758C19.4506 98.7671 22.7494 96.7582 22.7494 96.7582ZM18.2976 92.9159L21.3273 91.0545C21.481 90.9702 21.6593 91.022 21.7223 91.1371C21.8063 91.2905 21.754 91.4689 21.6386 91.5321L18.6089 93.3935C18.4552 93.4778 18.2769 93.426 18.2139 93.3109C18.1212 93.1872 18.1438 93.0002 18.2976 92.9159ZM18.9028 93.9305L21.9325 92.0692C22.0863 91.9848 22.2646 92.0366 22.3276 92.1517C22.3906 92.2668 22.3592 92.4835 22.2439 92.5467L19.2142 94.4081C19.0604 94.4924 18.8821 94.4406 18.8191 94.3255C18.7264 94.2018 18.7875 93.9938 18.9028 93.9305ZM19.4244 95.3401C19.3404 95.1867 19.3928 95.0084 19.5081 94.9451L22.5378 93.0838C22.6915 92.9994 22.8698 93.0513 22.9328 93.1663C23.0168 93.3198 22.9645 93.4981 22.8491 93.5614L19.8194 95.4227C19.6954 95.5157 19.5171 95.4639 19.4244 95.3401Z" fill="white"/>
<path d="M53.9698 209.418C53.8768 209.48 53.8148 209.603 53.8148 209.696C53.7839 209.82 53.8148 209.944 53.9078 210.037L57.9361 215.328C58.0911 215.513 58.37 215.544 58.5559 215.421C59.3925 214.802 60.8799 213.935 62.5842 214.183L58.37 208.675C58.308 208.613 58.246 208.551 58.184 208.52C56.4487 207.871 54.8064 208.799 53.9698 209.418Z" fill="white"/>
<path d="M65.4657 209.603L61.4374 204.312C61.3754 204.219 61.2515 204.158 61.1275 204.127C61.0036 204.096 60.9106 204.127 60.8176 204.219C59.981 204.838 58.6485 206.169 58.8345 208.025C58.8345 208.087 58.8655 208.18 58.9274 208.242L63.1417 213.781C63.3276 212.079 64.5671 210.841 65.4037 210.222C65.5897 210.068 65.6206 209.789 65.4657 209.603Z" fill="white"/>
<path d="M62.8939 204.56L62.646 204.745L66.0236 209.17C66.3954 209.665 66.3025 210.377 65.8067 210.748C65.125 211.274 64.0714 212.295 63.8545 213.688C65.001 212.264 66.6433 211.367 67.6349 210.903C67.7589 210.841 67.8518 210.748 67.8828 210.593C67.9138 210.47 67.8828 210.315 67.8208 210.222L63.5446 204.622C63.3897 204.467 63.1108 204.405 62.8939 204.56Z" fill="white"/>
<path d="M57.3783 215.761L54.0007 211.336L53.7528 211.522C53.5669 211.677 53.5359 211.955 53.6598 212.141L57.936 217.741C58.029 217.834 58.1529 217.927 58.2769 217.927C58.4008 217.927 58.5558 217.865 58.6178 217.772C59.3305 216.937 60.6319 215.575 62.3052 214.864C60.9108 214.709 59.6403 215.452 58.9586 215.978C58.4628 216.349 57.7501 216.256 57.3783 215.761Z" fill="white"/>
<path d="M225.08 206.664L218.883 204.653C218.108 204.405 217.302 204.838 217.054 205.581L214.111 214.709C213.863 215.482 214.296 216.287 215.04 216.534L221.238 218.546C222.012 218.793 222.818 218.36 223.066 217.617L226.01 208.49C226.258 207.716 225.855 206.911 225.08 206.664ZM221.702 212.667C221.3 212.914 220.804 213.1 220.215 213.317C219.998 213.409 219.781 213.502 219.533 213.595C219.471 213.626 219.409 213.626 219.347 213.595C219.285 213.564 219.223 213.533 219.192 213.471C219.069 213.255 218.945 213.038 218.821 212.852C218.511 212.295 218.232 211.831 218.077 211.398C217.891 210.934 217.891 210.532 218.015 210.129C218.139 209.758 218.387 209.449 218.697 209.294C219.038 209.139 219.378 209.108 219.75 209.201C219.998 209.294 220.215 209.449 220.37 209.696C220.432 209.82 220.525 209.944 220.556 210.099C220.68 210.006 220.804 209.944 220.959 209.882C221.207 209.789 221.486 209.789 221.733 209.882C222.074 210.006 222.353 210.253 222.508 210.594C222.663 210.934 222.663 211.305 222.57 211.677C222.415 212.11 222.136 212.419 221.702 212.667Z" fill="white"/>
<path d="M228.768 206.664L223.748 202.518C223.128 201.992 222.199 202.084 221.703 202.703L220.277 204.436L225.917 206.262C226.692 206.509 227.094 207.314 226.847 208.087L225.173 213.286L228.954 208.737C229.48 208.087 229.388 207.159 228.768 206.664Z" fill="white"/>
</g>
<defs>
<clipPath id="clip0">
<rect width="264" height="242" fill="white"/>
</clipPath>
</defs>
</svg>
