<svg width="2560" height="3078" viewBox="0 0 2560 3078" fill="none" xmlns="http://www.w3.org/2000/svg">
<path d="M-97.5 107L2595.5 0L2704.5 3078L-97.5 3026.5V107Z" fill="url(#paint0_linear)"/>
<path d="M711.331 1888.2C668.021 1812.8 513.899 1853.74 442.252 1883.64L1.00019 2106.5L-21 3031.5L2082.5 2848C2082.62 2802.37 2072.2 2558.73 2002.38 2542.27C1915.12 2521.68 1954.73 2447.54 1860.28 2370.83C1765.83 2294.12 1625.19 2391.82 1547.33 2410.14C1469.48 2428.47 1418.06 2397.7 1349.89 2317.03C1281.72 2236.36 1267.99 2220.33 1178.29 2193.91C1088.58 2167.49 1009.17 2225.54 984 2183.79C958.835 2142.04 1014.19 2104.33 951.404 2048.84C888.616 1993.34 867.511 2073.63 754.773 2040.9C642.036 2008.17 765.468 1982.44 711.331 1888.2Z" fill="url(#paint1_linear)"/>
<path d="M592.508 355.861C567.753 361.75 529.594 359.153 495.522 354.351C464.875 350.032 435.477 371.683 433.406 402.563L417.578 638.557C415.642 667.424 438.535 691.903 467.466 691.903H1143.44C1168.13 691.903 1374.1 606.608 1350.85 598.304C1322.05 588.017 1252.6 564.017 1257.39 525.18C1263.63 474.43 1238.21 411.466 1187.01 385.51C1135.8 359.554 1097.12 394.266 1068.8 394.266C1018.95 394.266 1015.44 351.561 968.561 343.517C944.795 339.439 864.211 355.861 818.565 371.635C772.919 387.408 728.918 337.681 697.385 333.23C656.087 327.401 644.404 343.517 592.508 355.861Z" fill="url(#paint2_linear)" fill-opacity="0.8"/>
<path d="M2004.65 1336.86C2026.31 1341.99 2059.14 1340.09 2089.27 1336.11C2119.93 1332.06 2149.29 1353.67 2151.37 1384.52L2165.3 1591.4C2167.25 1620.27 2144.35 1644.76 2115.41 1644.76H1497.47C1474.88 1644.76 1285.61 1566.57 1306.9 1559C1333.39 1549.57 1397.3 1527.58 1392.9 1492C1387.15 1445.5 1410.53 1387.81 1457.65 1364.03C1504.77 1340.25 1540.35 1372.05 1566.41 1372.05C1612.28 1372.05 1615.51 1332.92 1658.64 1325.55C1680.51 1321.82 1754.66 1336.86 1796.65 1351.32C1838.65 1365.77 1879.14 1320.2 1908.15 1316.13C1946.15 1310.79 1956.9 1325.55 2004.65 1336.86Z" fill="url(#paint3_linear)" fill-opacity="0.8"/>
<defs>
<linearGradient id="paint0_linear" x1="1280" y1="160" x2="1280" y2="1925" gradientUnits="userSpaceOnUse">
<stop stop-color="#FBFBFB"/>
<stop offset="0.470229" stop-color="#F3F3F3"/>
<stop offset="1" stop-color="#EDEDED"/>
</linearGradient>
<linearGradient id="paint1_linear" x1="1192.77" y1="1801.4" x2="1264.13" y2="2761.11" gradientUnits="userSpaceOnUse">
<stop stop-color="#ED6284"/>
<stop offset="1" stop-color="#ED6284" stop-opacity="0"/>
</linearGradient>
<linearGradient id="paint2_linear" x1="856.886" y1="332" x2="856.886" y2="692.165" gradientUnits="userSpaceOnUse">
<stop stop-color="#EDEDED"/>
<stop offset="1" stop-color="white" stop-opacity="0"/>
</linearGradient>
<linearGradient id="paint3_linear" x1="1761.4" y1="1315" x2="1761.4" y2="1645" gradientUnits="userSpaceOnUse">
<stop stop-color="white"/>
<stop offset="1" stop-color="white" stop-opacity="0"/>
</linearGradient>
</defs>
</svg>
