<svg width="27" height="27" viewBox="0 0 27 27" fill="none" xmlns="http://www.w3.org/2000/svg">
<g clip-path="url(#clip0)">
<path d="M17.62 12.2033L11.9071 9.07748C11.5786 8.89775 11.1903 8.90446 10.8683 9.09524C10.5462 9.28621 10.354 9.62358 10.354 9.99803V16.1961C10.354 16.5688 10.545 16.9055 10.865 17.0967C11.0321 17.1965 11.2173 17.2467 11.403 17.2467C11.5731 17.2467 11.7435 17.2046 11.9004 17.1202L17.6135 14.0482C17.9526 13.8657 18.1643 13.5131 18.1659 13.1278C18.1672 12.7425 17.9581 12.3884 17.62 12.2033ZM11.8694 15.4164V10.784L16.1391 13.1203L11.8694 15.4164Z" fill="white"/>
<path d="M26.3788 8.19106L26.3777 8.17922C26.3558 7.97108 26.1378 6.11971 25.2377 5.17805C24.1974 4.07046 23.018 3.93591 22.4508 3.8714C22.4039 3.86607 22.3609 3.86114 22.3224 3.85601L22.2772 3.85127C18.8586 3.60269 13.6957 3.56875 13.644 3.56856L13.6395 3.56836L13.635 3.56856C13.5833 3.56875 8.42041 3.60269 4.97101 3.85127L4.92544 3.85601C4.88874 3.86094 4.8483 3.86548 4.8043 3.87061C4.24361 3.93532 3.07684 4.07007 2.03357 5.2177C1.17635 6.1493 0.928557 7.96102 0.903107 8.16462L0.900148 8.19106C0.892453 8.27767 0.709961 10.3395 0.709961 12.4095V14.3445C0.709961 16.4145 0.892453 18.4764 0.900148 18.5632L0.901529 18.5762C0.923428 18.781 1.14123 20.5984 2.03712 21.5405C3.01528 22.611 4.25209 22.7526 4.91735 22.8288C5.0225 22.8408 5.11306 22.8511 5.17481 22.8619L5.23459 22.8702C7.20847 23.058 13.3972 23.1506 13.6596 23.1543L13.6675 23.1545L13.6754 23.1543C13.7271 23.1541 18.8898 23.1202 22.3084 22.8716L22.3536 22.8669C22.3968 22.8611 22.4453 22.856 22.4986 22.8505C23.0561 22.7913 24.2166 22.6684 25.2454 21.5363C26.1026 20.6045 26.3506 18.7928 26.3759 18.5894L26.3788 18.563C26.3865 18.4762 26.5692 16.4145 26.5692 14.3445V12.4095C26.569 10.3395 26.3865 8.27786 26.3788 8.19106ZM25.0537 14.3445C25.0537 16.2604 24.8864 18.2335 24.8706 18.4146C24.8063 18.9136 24.5449 20.0598 24.1272 20.5138C23.4832 21.2222 22.8217 21.2925 22.3388 21.3436C22.2804 21.3497 22.2263 21.3556 22.1774 21.3617C18.8708 21.6008 13.9029 21.6375 13.674 21.6389C13.4174 21.6352 7.31915 21.5419 5.40544 21.3641C5.30739 21.3481 5.20144 21.3359 5.08978 21.3233C4.52336 21.2584 3.74802 21.1696 3.15181 20.5138L3.1378 20.4988C2.72744 20.0713 2.47353 18.9994 2.40901 18.4205C2.39698 18.2836 2.22534 16.2872 2.22534 14.3445V12.4095C2.22534 10.4958 2.39225 8.52487 2.40842 8.34001C2.48517 7.75229 2.75151 6.67548 3.15181 6.24026C3.81549 5.51028 4.51527 5.42939 4.97811 5.37593C5.02231 5.3708 5.06354 5.36606 5.10162 5.36113C8.45632 5.12083 13.46 5.08512 13.6395 5.08374C13.819 5.08493 18.8209 5.12083 22.1458 5.36113C22.1867 5.36626 22.2312 5.37139 22.2792 5.37692C22.7552 5.43117 23.4748 5.51324 24.1351 6.21757L24.1412 6.22408C24.5516 6.6516 24.8055 7.74222 24.87 8.33271C24.8814 8.46194 25.0537 10.4627 25.0537 12.4095V14.3445Z" fill="white"/>
</g>
<defs>
<clipPath id="clip0">
<rect width="25.8592" height="25.8592" fill="white" transform="translate(0.709961 0.4375)"/>
</clipPath>
</defs>
</svg>
