<svg width="30" height="34" viewBox="0 0 30 34" fill="none" xmlns="http://www.w3.org/2000/svg">
<path d="M27.4519 29.6271L28.0616 30.4197L29.8761 29.0239L27.6191 28.6412L27.4519 29.6271ZM20.4321 1.36534L21.0418 2.15796L22.8563 0.762153L20.5993 0.379411L20.4321 1.36534ZM27.6191 28.6412C21.605 27.6213 16.5981 22.9395 15.4592 16.593L13.4906 16.9462C14.7832 24.149 20.4656 29.4567 27.2847 30.613L27.6191 28.6412ZM15.4592 16.593C14.4431 10.931 16.7735 5.44129 21.0418 2.15796L19.8224 0.572715C14.9852 4.29363 12.3375 10.5204 13.4906 16.9462L15.4592 16.593ZM15.1482 2.38018C16.8917 2.0673 18.6166 2.07174 20.2649 2.35126L20.5993 0.379411C18.7265 0.0618376 16.769 0.0573758 14.7949 0.411626L15.1482 2.38018ZM3.1289 19.6568C1.67715 11.5669 7.05837 3.83194 15.1482 2.38018L14.7949 0.411626C5.6179 2.05848 -0.486511 10.833 1.16035 20.01L3.1289 19.6568ZM20.4055 31.6761C12.3156 33.1278 4.58066 27.7466 3.1289 19.6568L1.16035 20.01C2.80721 29.1871 11.5817 35.2915 20.7587 33.6446L20.4055 31.6761ZM26.8422 28.8345C25.0154 30.2397 22.8338 31.2403 20.4055 31.6761L20.7587 33.6446C23.5096 33.151 25.987 32.0156 28.0616 30.4197L26.8422 28.8345Z" fill="white"/>
</svg>
