<svg width="30" height="30" viewBox="0 0 30 30" fill="none" xmlns="http://www.w3.org/2000/svg">
<path fill-rule="evenodd" clip-rule="evenodd" d="M7.29543 7.29539C6.84774 7.74308 6.84774 8.46893 7.29543 8.91662L12.9698 14.591L7.29561 20.2652C6.84792 20.7129 6.84792 21.4387 7.29561 21.8864C7.74331 22.3341 8.46915 22.3341 8.91684 21.8864L14.591 16.2122L20.2653 21.8865C20.7129 22.3341 21.4388 22.3341 21.8865 21.8865C22.3342 21.4388 22.3342 20.7129 21.8865 20.2652L16.2123 14.591L21.8867 8.9166C22.3344 8.46891 22.3344 7.74306 21.8867 7.29537C21.439 6.84768 20.7131 6.84768 20.2654 7.29537L14.591 12.9698L8.91666 7.29539C8.46897 6.8477 7.74312 6.8477 7.29543 7.29539Z" fill="white" />
</svg>
