<svg width="26" height="16" viewBox="0 0 26 16" fill="none" xmlns="http://www.w3.org/2000/svg">
<path d="M20.8122 9.31782C20.4091 8.8087 20.5244 8.58219 20.8122 8.1271C20.8174 8.12191 24.1454 3.5232 24.4883 1.96363L24.4903 1.96259C24.6607 1.39425 24.4903 0.976562 23.6664 0.976562H20.94C20.2459 0.976562 19.9259 1.33502 19.7545 1.73609C19.7545 1.73609 18.3664 5.05887 16.4026 7.21276C15.7688 7.83514 15.4758 8.03463 15.1298 8.03463C14.9594 8.03463 14.6945 7.83514 14.6945 7.26679V1.96259C14.6945 1.281 14.5002 0.976562 13.9256 0.976562H9.63859C9.20324 0.976562 8.94452 1.2945 8.94452 1.59062C8.94452 2.23689 9.92639 2.38547 10.0282 4.20376V8.14892C10.0282 9.01339 9.87133 9.17236 9.52325 9.17236C8.59645 9.17236 6.34697 5.83606 5.0139 2.01766C4.7448 1.27684 4.48193 0.977601 3.78267 0.977601H1.05524C0.277009 0.977601 0.120117 1.33606 0.120117 1.73713C0.120117 2.44574 1.04692 5.96906 4.42997 10.6239C6.68465 13.8012 9.8599 15.5229 12.7484 15.5229C14.4846 15.5229 14.6965 15.1405 14.6965 14.4828C14.6965 11.4468 14.5396 11.16 15.4093 11.16C15.8124 11.16 16.5065 11.3595 18.1274 12.8921C19.98 14.7093 20.2844 15.5229 21.3213 15.5229H24.0477C24.8249 15.5229 25.2187 15.1405 24.9922 14.3862C24.4737 12.7996 20.9701 9.53601 20.8122 9.31782Z" fill="white"/>
</svg>
