<svg width="2083" height="1187" viewBox="0 0 2083 1187" fill="none" xmlns="http://www.w3.org/2000/svg">
<path d="M711.331 43.1969C668.021 -32.1992 513.899 8.74165 442.252 38.6366L1.00019 261.5L-21 1186.5L2082.5 1003C2082.62 957.366 2072.2 713.734 2002.38 697.266C1915.12 676.68 1954.73 602.539 1860.28 525.831C1765.83 449.123 1625.19 546.821 1547.33 565.144C1469.48 583.468 1418.06 552.696 1349.89 472.029C1281.72 391.361 1267.99 375.335 1178.29 348.914C1088.58 322.493 1009.17 380.541 984 338.792C958.835 297.043 1014.19 259.335 951.404 203.838C888.616 148.341 867.511 228.627 754.773 195.896C642.036 163.166 765.468 137.442 711.331 43.1969Z" fill="url(#paint0_linear)"/>
<defs>
<linearGradient id="paint0_linear" x1="1192.77" y1="-43.5995" x2="1264.13" y2="916.111" gradientUnits="userSpaceOnUse">
<stop stop-color="#ED6284"/>
<stop offset="1" stop-color="#ED6284" stop-opacity="0"/>
</linearGradient>
</defs>
</svg>
