<svg width="33" height="32" viewBox="0 0 33 32" fill="none" xmlns="http://www.w3.org/2000/svg">
<path d="M9.94092 7.10558C9.86997 6.27731 10.7819 5.72914 11.4801 6.18036L16.9903 9.74152C17.2683 9.92119 17.6172 9.95164 17.9222 9.82286L23.9661 7.27029C24.7319 6.94686 25.5351 7.64474 25.3217 8.44819L23.6376 14.7892C23.5526 15.1092 23.6315 15.4504 23.8482 15.7006L28.1435 20.66C28.6878 21.2883 28.2722 22.2678 27.4422 22.3132L20.8911 22.671C20.5605 22.689 20.2604 22.8695 20.0894 23.1529L16.7001 28.7705C16.2706 29.4823 15.2107 29.3898 14.911 28.6143L12.5463 22.4945C12.427 22.1857 12.1627 21.956 11.8403 21.8809L5.45024 20.3934C4.64059 20.205 4.40105 19.1683 5.04593 18.6437L10.1356 14.5036C10.3923 14.2947 10.5291 13.9723 10.5009 13.6425L9.94092 7.10558Z" fill="#FFF6AA"/>
</svg>
