<svg width="899" height="344" viewBox="0 0 899 344" fill="none" xmlns="http://www.w3.org/2000/svg">
<path d="M168.482 22.8008C145.237 28.3008 109.692 26.054 77.5351 21.6652C46.9009 17.4844 17.5517 39.1088 15.4717 69.9569L0.598162 290.544C-1.34864 319.416 21.5466 343.908 50.4848 343.908H698.084C721.634 343.908 919.168 262.353 896.977 254.468C869.31 244.639 802.594 221.705 807.188 184.594C813.191 136.1 788.772 75.9346 739.581 51.132C690.389 26.3295 653.234 59.4987 626.028 59.4987C578.139 59.4987 574.77 18.6919 529.732 11.0051C506.902 7.10853 429.49 22.8008 385.64 37.8732C341.791 52.9455 299.522 5.42822 269.231 1.17527C229.558 -4.39496 218.334 11.0051 168.482 22.8008Z" fill="url(#paint0_linear)" fill-opacity="0.2"/>
<defs>
<linearGradient id="paint0_linear" x1="422.453" y1="1.20309e-07" x2="424.537" y2="237.782" gradientUnits="userSpaceOnUse">
<stop stop-color="white"/>
<stop offset="1" stop-color="white" stop-opacity="0"/>
</linearGradient>
</defs>
</svg>
