<svg width="110" height="411" viewBox="0 0 110 411" fill="none" xmlns="http://www.w3.org/2000/svg">
<path d="M-483.802 325.643C-522.419 395.144 -359.792 410.938 -255.836 410.376C-243.115 410.308 -232.259 400.233 -225.889 389.221C-206.032 354.894 -143.946 297.347 4.8615 239.551C189.027 168.022 88.1638 10.9357 13.393 -60.1142C12.3793 -61.0774 11.3524 -61.8932 10.1829 -62.6597C-51.9691 -103.394 -198.411 -169.891 -301.203 -118.324C-403.809 -66.8496 -343.381 9.31905 -299.054 42.0804C-298.064 42.8127 -297.148 43.5693 -296.292 44.455C-276.951 64.4587 -247.102 119.661 -273.33 191.681C-306.853 283.734 -431.909 232.249 -483.802 325.643Z" fill="white" fill-opacity="0.13"/>
</svg>
