<svg width = "122"
     height = "122"
     viewBox = "0 0 122 122"
     fill = "none"
     xmlns = "http://www.w3.org/2000/svg">
  <rect x = "0"
        y = "0"
        width = "122"
        height = "122"
        fill = "#8E62EB"/>

<path fill-rule = "evenodd"
      clip-rule = "evenodd"
      d = "M79.5955 35.0568C90.9668 46.4283 91.3411 64.6338 80.7218 76.4552C71.322 83.1404 59.4223 86.3154 59.4294 86.4413C51.3543 86.7436 43.1785 83.8107 37.0106 77.6427C34.7327 75.3683 32.8975 72.8169 31.5049 70.1C30.3858 67.9157 30.8536 67.4694 32.8003 68.9268C43.4555 76.8869 58.6161 76.027 68.2997 66.3466C77.9798 56.6628 78.8398 41.5018 70.8762 30.8464C69.4225 28.8995 69.8686 28.4317 72.0494 29.5508C74.7699 30.9472 77.3213 32.7824 79.5955 35.0568Z"
      fill = "#FDE588"/>
<path fill-rule = "evenodd"
      clip-rule = "evenodd"
      d = "M50.8076 47.1445C47.1191 47.1445 44.1252 50.1349 44.1252 53.8272C44.1252 54.1871 44.154 54.5397 44.208 54.8816C42.5202 55.2774 41.2607 56.7925 41.2607 58.5989C41.2607 60.7077 42.97 62.4206 45.0787 62.4206H57.49C60.6531 62.4206 63.2189 59.8547 63.2189 56.6915C63.2189 53.5284 60.6532 50.9625 57.49 50.9625C57.2778 50.9625 57.0691 50.9733 56.8639 50.9985C55.7988 48.7208 53.4885 47.1445 50.8076 47.1445Z"
      fill = "#EFF6FF"/>
<path fill-rule = "evenodd"
      clip-rule = "evenodd"
      d = "M71.8086 72.4429C74.3743 72.4429 76.5694 74.0154 77.4798 76.2502C77.9045 76.1315 78.347 76.0703 78.8076 76.0703C79.4877 76.0703 80.1354 76.207 80.7221 76.4554C82.273 77.1103 83.4174 78.5354 83.6764 80.2519C86.933 80.2519 89.5744 82.8933 89.5744 86.15C89.5744 89.4067 86.9331 92.0481 83.6764 92.0481H65.4068C62.2258 92.0481 59.6277 89.5723 59.4297 86.4415C59.4225 86.3155 59.4189 86.1896 59.4189 86.0637C59.4189 84.0808 60.3833 82.3211 61.8695 81.2344C61.7616 80.8421 61.704 80.4284 61.704 80.0037C61.704 77.4847 63.7444 75.4406 66.2669 75.4406C66.3569 75.4406 66.4468 75.4442 66.5368 75.4478C67.6018 73.6484 69.5667 72.4429 71.8086 72.4429Z"
      fill = "#EFF6FF"/>
<path fill-rule = "evenodd"
      clip-rule = "evenodd"
      d = "M61.6571 30.5083L63.55 34.2401L67.2816 36.1294C67.7854 36.385 67.7818 36.5756 67.2781 36.8311L63.55 38.7204L61.6608 42.4485C61.4053 42.9522 61.2145 42.9559 60.9591 42.452L59.0699 38.7203L55.3383 36.8274C54.8345 36.5718 54.8345 36.3847 55.3383 36.1293L59.0699 34.24L60.9591 30.5082C61.2144 30.0044 61.4015 30.0044 61.6571 30.5083Z"
      fill = "#FDE588"/>
<path fill-rule = "evenodd"
      clip-rule = "evenodd"
      d = "M34.1247 38.0543L36.0176 41.7861L39.7492 43.6789C40.253 43.9345 40.2494 44.1216 39.7457 44.377L36.0176 46.2699L34.1247 49.998C33.8692 50.5018 33.6822 50.5055 33.4266 50.0016L31.5337 46.2698L27.8021 44.3769C27.2983 44.1214 27.3019 43.9342 27.8056 43.6788L31.5337 41.7859L33.4266 38.0578C33.682 37.5541 33.8692 37.5505 34.1247 38.0543Z"
      fill = "#FDE588"/>
<path fill-rule = "evenodd"
      clip-rule = "evenodd"
      d = "M80.7221 76.4551C91.3413 64.6336 90.967 46.4283 79.5957 35.0567C77.3215 32.7824 74.7701 30.9471 72.0496 29.5509C69.869 28.4317 69.4227 28.8995 70.8765 30.8463C72.1648 32.5701 75.0112 34.4126 76.249 36.3306C84.8314 49.6058 86.2349 60.8767 76.472 74.5946C76.8895 75.084 77.2313 75.6454 77.4797 76.25C77.9043 76.1313 78.3469 76.0701 78.8075 76.0701C79.4877 76.0701 80.1355 76.2068 80.7221 76.4551Z"
      fill = "#FDD76F"/>
<path fill-rule = "evenodd"
      clip-rule = "evenodd"
      d = "M89.5743 86.15C89.5743 82.8933 86.933 80.2519 83.6763 80.2519C83.4172 78.5354 82.2728 77.1103 80.722 76.4554C80.1354 76.207 79.4877 76.0703 78.8075 76.0703C78.3469 76.0703 77.9042 76.1315 77.4797 76.2502C77.2314 75.6456 76.8895 75.0843 76.4721 74.5949C75.3493 73.2777 73.6761 72.4429 71.8085 72.4429C69.8869 72.4429 68.1739 73.3246 67.0513 74.71C72.2188 76.1099 75.99 80.493 75.99 85.6857C75.99 88.0392 75.2164 90.2308 73.8849 92.0481H83.6764C86.933 92.0481 89.5743 89.4067 89.5743 86.15Z"
      fill = "#D9EEFF"/>
<path fill-rule = "evenodd"
      clip-rule = "evenodd"
      d = "M57.4899 62.4208C60.6529 62.4208 63.2187 59.855 63.2187 56.6918C63.2187 53.5286 60.653 50.9628 57.4899 50.9628C57.2776 50.9628 57.0689 50.9736 56.8637 50.9987C55.7986 48.7208 53.4883 47.1445 50.8074 47.1445C50.0913 47.1445 49.4004 47.2561 48.7527 47.4684C51.376 49.0733 53.1465 52.1213 53.1465 55.6156C53.1465 58.2966 52.103 60.7113 50.4368 62.4205H57.4899V62.4208Z"
      fill = "#D9EEFF"/>
<path d = "M54.9073 37.6765L58.361 39.4284L60.1098 42.8826C60.2224 43.1046 60.5649 43.7801 61.3086 43.7802C62.0528 43.7802 62.3969 43.1018 62.51 42.8789L64.2584 39.4287L67.7087 37.6801C67.9315 37.5672 68.6098 37.2231 68.6098 36.4789C68.6098 35.7352 67.9342 35.3927 67.7118 35.2797L64.2582 33.5313L62.5064 30.0776C62.3936 29.8551 62.0503 29.1782 61.3081 29.1782C60.5659 29.1782 60.2227 29.8553 60.1097 30.0782L58.3612 33.5316L54.9073 35.2802C54.6848 35.3931 54.0079 35.7364 54.0081 36.4785C54.0081 37.2206 54.685 37.5637 54.9073 37.6765ZM59.4997 35.0895C59.6806 34.9979 59.8275 34.851 59.9191 34.6701L61.3085 31.9257L62.7007 34.6706C62.7923 34.8513 62.9391 34.9979 63.1197 35.0894L65.8654 36.4794L63.1195 37.871C62.9388 37.9626 62.7921 38.1092 62.7005 38.2899L61.309 41.0358L59.9191 38.2903C59.8276 38.1096 59.681 37.9629 59.5004 37.8712L56.7556 36.4788L59.4997 35.0895Z"
      fill = "black"/>
<path d = "M32.5775 50.4327C32.6901 50.6546 33.0326 51.3302 33.7746 51.3302C34.517 51.3301 34.8609 50.6518 34.9738 50.4295L36.7258 46.9785L40.1762 45.2266C40.3991 45.1136 41.0773 44.7697 41.0774 44.0273C41.0775 43.2853 40.4019 42.9427 40.18 42.8302L36.726 41.0783L34.974 37.6242C34.8614 37.4022 34.5189 36.7267 33.777 36.7266C33.0347 36.7266 32.6906 37.405 32.5778 37.6273L30.8257 41.0783L27.3752 42.8301C27.1523 42.9432 26.474 43.2871 26.4741 44.0297C26.4741 44.7717 27.1499 45.1141 27.3716 45.2264L30.8256 46.9785L32.5775 50.4327ZM31.9648 42.6353C32.1449 42.5438 32.2914 42.3976 32.3828 42.2174L33.7763 39.4726L35.1684 42.217C35.2599 42.3974 35.4064 42.5439 35.5868 42.6355L38.3313 44.0275L35.5864 45.4212C35.4063 45.5127 35.2599 45.659 35.1685 45.8391L33.7749 48.584L32.3829 45.8395C32.2914 45.6591 32.1449 45.5126 31.9645 45.4211L29.22 44.0289L31.9648 42.6353Z"
      fill = "black"/>
<path d = "M84.4481 79.3428C84.0699 78.0561 83.2579 76.9586 82.1943 76.2047C92.4217 63.9305 91.6669 45.782 80.2686 34.3834C77.9726 32.0873 75.3534 30.1764 72.484 28.7037C71.2744 28.0829 70.0594 27.6212 69.3665 28.4412C68.6783 29.2552 69.3188 30.352 70.1135 31.4164C74.4537 37.2226 76.1937 44.6651 74.8873 51.8356C74.793 52.3528 75.1361 52.8486 75.6534 52.9429C76.1705 53.0358 76.6665 52.6941 76.7607 52.1767C78.1452 44.5766 76.3374 36.6899 71.7997 30.4939C74.4202 31.8626 76.8156 33.6236 78.922 35.7298C89.7341 46.5423 90.3455 63.8251 80.425 75.349C79.9082 75.1988 79.3651 75.1179 78.8072 75.1179C78.5422 75.1179 78.279 75.1353 78.0195 75.1699C76.7908 72.9112 74.4308 71.4905 71.8081 71.4905C69.5058 71.4905 67.3364 72.6284 66.0206 74.4937C63.0933 74.6228 60.7514 77.0447 60.7514 80.0033C60.7514 80.2909 60.7733 80.5772 60.8169 80.8596C59.4733 82.0454 58.6363 83.72 58.4914 85.5082C50.725 85.557 43.187 82.4728 37.6834 76.9688C35.5748 74.8635 33.814 72.4694 32.4477 69.8501C37.7786 73.7528 44.3478 75.6514 50.9789 75.2017C57.7656 74.7408 64.156 71.8351 68.9734 67.0193C71.8523 64.1369 74.0299 60.7536 75.4458 56.9635C75.6298 56.4709 75.3797 55.9224 74.8871 55.7384C74.3946 55.5543 73.846 55.8044 73.6619 56.297C72.3418 59.8304 70.3111 62.9852 67.6264 65.673C58.4608 74.8357 43.7337 75.9064 33.3708 68.1645C32.3071 67.3681 31.2105 66.7258 30.3959 67.4135C29.5754 68.1058 30.0366 69.3224 30.6574 70.5339C32.1278 73.4025 34.0388 76.0208 36.3371 78.3155C39.4474 81.426 43.0902 83.7951 47.1641 85.3571C50.7298 86.7241 54.4631 87.4149 58.2788 87.4147C58.3853 87.4147 58.4922 87.4128 58.5989 87.4118C59.2287 90.5933 62.0411 92.9998 65.4062 92.9998H68.9147C69.4406 92.9998 69.8669 92.5736 69.8669 92.0476C69.8669 91.5217 69.4406 91.0955 68.9147 91.0955H65.4062C62.6295 91.0955 60.3704 88.838 60.3704 86.0632C60.3704 84.464 61.1407 82.9459 62.4308 82.0024C62.7501 81.7689 62.8917 81.3624 62.7868 80.9811C62.6996 80.6643 62.6554 80.3352 62.6554 80.0031C62.6554 78.0121 64.2752 76.3922 66.2662 76.3922C66.3435 76.3922 66.4208 76.3955 66.4982 76.3986C66.8455 76.4101 67.1771 76.2335 67.3555 75.9322C68.2821 74.3669 69.9882 73.3944 71.808 73.3944C73.922 73.3944 75.802 74.6562 76.5975 76.609C76.7801 77.0571 77.2696 77.2973 77.7358 77.1666C78.0793 77.0705 78.4398 77.0217 78.8072 77.0217C80.7569 77.0217 82.4452 78.471 82.7344 80.393C82.8045 80.8589 83.2048 81.2034 83.6759 81.2034C86.4031 81.2034 88.6218 83.4222 88.6218 86.1495C88.6218 88.8767 86.403 91.0955 83.6759 91.0955H73.3122C72.7864 91.0955 72.3601 91.5217 72.3601 92.0476C72.3601 92.5736 72.7864 92.9998 73.3122 92.9998H83.6759C87.4532 92.9998 90.5261 89.9269 90.5261 86.1497C90.5263 82.6336 87.8632 79.7275 84.4481 79.3428Z"
      fill = "black"/>
<path d = "M40.3086 58.5989C40.3086 61.2312 42.4484 63.3727 45.0787 63.3727H57.4901C61.174 63.3727 64.171 60.3754 64.171 56.6915C64.171 53.0076 61.1739 50.0105 57.4901 50.0105C57.467 50.0105 57.4441 50.0106 57.4214 50.0109C56.0677 47.6716 53.5388 46.1924 50.8076 46.1924C46.5979 46.1924 43.173 49.6173 43.173 53.8272C43.173 53.958 43.1763 54.0891 43.1832 54.2204C41.4561 54.9629 40.3086 56.6611 40.3086 58.5989ZM44.4253 55.8084C44.9108 55.6947 45.2261 55.2255 45.1484 54.733C45.1012 54.4343 45.0773 54.1295 45.0773 53.8271C45.0773 50.6672 47.6479 48.0966 50.8076 48.0966C53.0238 48.0966 55.0626 49.3939 56.0014 51.4018C56.176 51.775 56.5703 51.993 56.9798 51.9435C57.1381 51.9241 57.305 51.9145 57.4899 51.9145C60.1238 51.9145 62.2667 54.0574 62.2667 56.6914C62.2667 59.3254 60.1238 61.4684 57.4899 61.4684H45.0786C43.4983 61.4684 42.2126 60.1811 42.2126 58.5987C42.2129 57.2614 43.1226 56.114 44.4253 55.8084Z"
      fill = "black"/>
</svg>
