<svg width="2560" height="1567" viewBox="0 0 2560 1567" fill="none" xmlns="http://www.w3.org/2000/svg">
<path d="M2601.5 892C2601.5 892 1860.38 1619.27 1682.5 1503.76C1562.29 1425.71 1446.42 1542.42 1296.5 1563.85C1114.3 1589.9 1042.86 1444.83 895.503 1472.39C673.503 1513.93 -69 1138.5 -69 1138.5L-37.9994 301.5C-37.9994 301.5 678.826 71.7856 779.003 54.9854C900.628 34.5882 887.33 75.1596 1009 54.9855C1088.09 41.8723 1108.57 2.29858 1189 0.0987535C1278.22 -2.34142 1424.64 41.0713 1512.5 54.9855C1633.7 74.1787 1707.33 43.2266 1827.5 66.915C1911.47 83.4666 2601.5 338.5 2601.5 338.5L2601.5 892Z" fill="url(#paint0_linear)"/>
<defs>
<linearGradient id="paint0_linear" x1="1284" y1="1465.18" x2="1284" y2="87.7014" gradientUnits="userSpaceOnUse">
<stop offset="0.0104167" stop-color="#FFEEE9"/>
<stop offset="0.0989583" stop-color="#FFEFE9"/>
<stop offset="1" stop-color="#FDFDFD"/>
</linearGradient>
</defs>
</svg>
