<svg width="2560" height="3652" viewBox="0 0 2560 3652" fill="none" xmlns="http://www.w3.org/2000/svg">
<path d="M1753 90.3718C1660.01 3.97189 1245.16 163.41 1071.19 272.141C1057.48 280.709 1056.08 300.75 1061.93 315.82C1083.82 372.211 1074.95 501.439 922.571 725.959C737.772 998.252 1135.58 1066.86 1357.58 1067.13C1513.88 1048.71 1955.68 907.696 2041.68 742.293C2121.84 588.136 2090.94 418.734 1991.26 404.896C2047.84 402.713 2157.51 387.822 2112 313.372C2028.32 176.497 1880 208.372 1753 90.3718Z" fill="#FFE500"/>
<path d="M1640.43 701.474C1817.25 651.427 1558.72 359.566 1393.48 206.38C1384.35 197.919 1370.35 197.701 1359.03 202.876C1290.73 234.108 1098.39 245.043 733.967 91.3462C329.678 -79.1625 243.534 318.716 250.911 540.999C250.958 542.437 251.109 543.72 251.417 545.126C285.765 702.095 508.024 1133.16 752.346 1210.49C996.368 1287.73 1261.02 1237.75 1244.47 1122.24C1244.29 1120.99 1244.19 1119.9 1244.07 1118.64C1237.76 1054.82 941.847 659.2 1098.17 587.492C1295.37 497.029 1412.12 766.09 1640.43 701.474Z" fill="#A4B0F0"/>
<g filter="url(#filter0_d)">
<path d="M-1.5 41C-1.5 41 596.5 242 1015.5 95C1203.7 28.9711 1451.37 113.803 1622.5 136C1832.35 163.221 2587.5 56.5 2587.5 56.5L2652.5 3630.01H-83L-1.5 41Z" fill="url(#paint0_linear)"/>
</g>
<path d="M582.103 1143.92C388.991 1218.42 -1.29299 1429.36 -119.732 1586.31C-135.765 1607.56 -209.276 1627.12 -227.679 1607.89L-582.187 1237.43C-589.798 1229.48 -591.311 1217.48 -585.914 1207.89L-60.0496 273.12C-57.5713 268.715 -53.851 265.181 -49.3994 262.786C-17.1556 245.446 59.7541 201.56 308.393 195.236C576.601 188.414 832.747 489.113 854.399 642.511C878.62 814.11 821.642 1051.51 582.103 1143.92Z" fill="white" fill-opacity="0.24"/>
<path d="M694.103 2533.92C481.329 2616.01 487.392 2878.25 525.639 3040.14C530.682 3061.48 508.588 3080.55 488.744 3071.21L-458.671 2625.48C-471.812 2619.3 -476.938 2603.26 -469.817 2590.61L51.9506 1663.12C54.4289 1658.71 58.1492 1655.18 62.6008 1652.79C94.8446 1635.45 171.754 1591.56 420.393 1585.24C688.602 1578.41 944.747 1879.11 966.399 2032.51C990.62 2204.11 933.642 2441.51 694.103 2533.92Z" fill="white" fill-opacity="0.24"/>
<path d="M667.246 1161.86C645.581 1166.99 612.759 1165.09 582.627 1161.11C551.97 1157.06 522.606 1178.67 520.528 1209.52L506.594 1416.4C504.649 1445.27 527.544 1469.76 556.481 1469.76H1174.43C1197.02 1469.76 1386.28 1391.57 1365 1384C1338.5 1374.57 1274.6 1352.58 1279 1317C1284.75 1270.5 1261.36 1212.81 1214.25 1189.03C1167.13 1165.25 1131.54 1197.05 1105.48 1197.05C1059.62 1197.05 1056.39 1157.92 1013.25 1150.55C991.385 1146.82 917.239 1161.86 875.241 1176.32C833.242 1190.77 792.756 1145.2 763.743 1141.13C725.744 1135.79 714.995 1150.55 667.246 1161.86Z" fill="url(#paint1_linear)" fill-opacity="0.8"/>
<path d="M2362.73 2171.36C2416.85 2184.17 2507.74 2173.82 2575.2 2161.82C2605.65 2156.41 2634.97 2178.07 2637.05 2208.91L2669.89 2696.05C2671.95 2726.5 2646.48 2751.67 2616.05 2749.25L1626.62 2670.78C1581.31 2667.19 998.44 2606.81 1041.27 2591.59C1091.46 2573.76 1212.48 2532.16 1204.15 2464.84C1193.26 2376.88 1237.55 2267.74 1326.78 2222.75C1416.02 2177.76 1483.41 2237.93 1532.76 2237.93C1619.63 2237.93 1625.74 2163.91 1707.44 2149.96C1748.85 2142.89 1889.28 2171.36 1968.82 2198.7C2048.36 2226.04 2125.03 2139.85 2179.98 2132.13C2251.94 2122.03 2272.3 2149.96 2362.73 2171.36Z" fill="url(#paint2_linear)" fill-opacity="0.8"/>
<path d="M1930.49 601.861C1955.25 607.75 1993.41 605.153 2027.48 600.351C2058.12 596.032 2087.52 617.683 2089.59 648.563L2105.42 884.557C2107.36 913.424 2084.47 937.903 2055.53 937.903H1379.56C1354.87 937.903 1148.9 852.608 1172.15 844.304C1200.95 834.017 1270.4 810.017 1265.61 771.18C1259.37 720.43 1284.79 657.466 1335.99 631.51C1387.2 605.554 1425.88 640.266 1454.2 640.266C1504.05 640.266 1507.56 597.561 1554.44 589.517C1578.2 585.439 1658.79 601.861 1704.44 617.635C1750.08 633.408 1794.08 583.681 1825.61 579.23C1866.91 573.401 1878.6 589.517 1930.49 601.861Z" fill="url(#paint3_linear)" fill-opacity="0.8"/>
<defs>
<filter id="filter0_d" x="-109" y="10" width="2787.5" height="3641.01" filterUnits="userSpaceOnUse" color-interpolation-filters="sRGB">
<feFlood flood-opacity="0" result="BackgroundImageFix"/>
<feColorMatrix in="SourceAlpha" type="matrix" values="0 0 0 0 0 0 0 0 0 0 0 0 0 0 0 0 0 0 127 0"/>
<feOffset dy="-5"/>
<feGaussianBlur stdDeviation="13"/>
<feColorMatrix type="matrix" values="0 0 0 0 0 0 0 0 0 0 0 0 0 0 0 0 0 0 0.07 0"/>
<feBlend mode="normal" in2="BackgroundImageFix" result="effect1_dropShadow"/>
<feBlend mode="normal" in="SourceGraphic" in2="effect1_dropShadow" result="shape"/>
</filter>
<linearGradient id="paint0_linear" x1="1280" y1="54.1943" x2="1280" y2="2381" gradientUnits="userSpaceOnUse">
<stop stop-color="#D2CFF3"/>
<stop offset="0.0677083" stop-color="#F3F4FA"/>
<stop offset="0.846802" stop-color="#F4F5FB"/>
<stop offset="1" stop-color="#DBF0FF"/>
</linearGradient>
<linearGradient id="paint1_linear" x1="910.5" y1="1140" x2="910.5" y2="1470" gradientUnits="userSpaceOnUse">
<stop stop-color="white"/>
<stop offset="1" stop-color="white" stop-opacity="0"/>
</linearGradient>
<linearGradient id="paint2_linear" x1="1902.04" y1="2130" x2="1878.79" y2="2634" gradientUnits="userSpaceOnUse">
<stop stop-color="white"/>
<stop offset="1" stop-color="white" stop-opacity="0"/>
</linearGradient>
<linearGradient id="paint3_linear" x1="1666.11" y1="578" x2="1666.11" y2="938.165" gradientUnits="userSpaceOnUse">
<stop stop-color="white"/>
<stop offset="1" stop-color="white" stop-opacity="0"/>
</linearGradient>
</defs>
</svg>
