<svg width="121" height="122" viewBox="1 -1 121 122" fill="none" xmlns="http://www.w3.org/2000/svg">
<rect x="-50" y="-50" width="222" height="222" fill="#FFD3D6"/>
<path d="M80.4974 30.062H41.3577C34.8445 30.062 29.5645 35.3421 29.5645 41.8553V67.5262C29.5645 74.0395 34.8446 79.3194 41.3577 79.3194H46.9748C47.242 79.3194 47.4586 79.5361 47.4586 79.8032V92.466C47.4586 93.9633 49.2899 94.6892 50.3155 93.5984L63.6015 79.4715C63.693 79.3742 63.8205 79.3192 63.9541 79.3192H80.4972C87.0106 79.3192 92.2905 74.039 92.2905 67.5259V41.8554C92.2909 35.342 87.0108 30.062 80.4974 30.062Z" fill="#EC5569"/>
<path d="M52.4202 74.9182C52.4202 74.6368 52.2105 74.4088 51.9517 74.4088H46.5138C40.2084 74.4088 35.0967 68.8487 35.0967 61.9898V34.9573C35.0967 33.7967 35.2436 32.6736 35.5174 31.6079C31.9613 33.639 29.5642 37.4672 29.5642 41.8556V67.5265C29.5642 74.0397 34.8443 79.3197 41.3575 79.3197H46.9745C47.2418 79.3197 47.4583 79.5364 47.4583 79.8035V92.4664C47.4583 93.9636 49.2897 94.6895 50.3153 93.5987L52.4197 91.361V74.9182H52.4202Z" fill="#E63950"/>
<path d="M74.1787 45.3677C71.1845 42.3735 66.3298 42.3735 63.3356 45.3677L61.6442 47.0591C61.241 47.4623 60.5871 47.4623 60.1837 47.0591L58.5194 45.3948C55.5252 42.4006 50.6706 42.4006 47.6763 45.3948C44.6821 48.3891 44.6821 53.2437 47.6763 56.2379L60.1848 68.7463C60.588 69.1496 61.2419 69.1496 61.6453 68.7463L74.1787 56.2108C77.1729 53.2166 77.1729 48.362 74.1787 45.3677Z" fill="#EC5569"/>
<path d="M74.1787 45.3677C71.1845 42.3735 66.3298 42.3735 63.3356 45.3677L61.6442 47.0591C61.241 47.4623 60.5871 47.4623 60.1837 47.0591L58.5194 45.3948C55.5252 42.4006 50.6706 42.4006 47.6763 45.3948C44.6821 48.3891 44.6821 53.2437 47.6763 56.2379L60.1848 68.7463C60.588 69.1496 61.2419 69.1496 61.6453 68.7463L74.1787 56.2108C77.1729 53.2166 77.1729 48.362 74.1787 45.3677Z" fill="#FFF5F5"/>
<path d="M51.6872 56.2378C48.693 53.2436 48.693 48.389 51.6872 45.3947C52.6694 44.4126 53.8522 43.7547 55.1034 43.4169C52.5402 42.7248 49.6885 43.3826 47.6766 45.3947C44.6824 48.389 44.6824 53.2436 47.6766 56.2378L60.185 68.7462C60.5882 69.1495 61.2421 69.1495 61.6455 68.7462L62.9204 67.4711L51.6872 56.2378Z" fill="#DCE6EB"/>
<path d="M80.5701 29H41.4303C38.6744 29 36.0502 29.8646 33.8416 31.5C33.4109 31.8189 33.3204 32.4266 33.6392 32.8573C33.9581 33.2879 34.5658 33.3783 34.9964 33.0596C36.8684 31.6734 39.0932 30.9406 41.4303 30.9406H80.5699C86.5378 30.9406 91.3929 35.7958 91.3929 41.7635V67.4344C91.3929 73.4023 86.5377 78.2574 80.5699 78.2574H64.0269C63.6272 78.2574 63.241 78.4245 62.9677 78.7154L49.6816 92.8422C49.3947 93.147 49.0622 93.0605 48.9326 93.0093C48.8029 92.958 48.5014 92.7933 48.5014 92.3746V79.7117C48.5014 78.9099 47.8492 78.2577 47.0474 78.2577H41.4303C35.4624 78.2577 30.6072 73.4024 30.6072 67.4347V41.7635C30.6072 39.568 31.2606 37.4543 32.4969 35.6512C32.7999 35.2092 32.6873 34.6054 32.2454 34.3023C31.8037 33.9992 31.1995 34.112 30.8966 34.5538C29.4379 36.6815 28.6667 39.1746 28.6667 41.7635V67.4344C28.6667 74.4722 34.3925 80.198 41.4304 80.198H46.561V92.3746C46.561 93.4571 47.2112 94.4144 48.2176 94.8132C48.5348 94.9389 48.8643 95 49.1899 95C49.8975 95 50.5873 94.7116 51.0951 94.1718L64.2371 80.1981H80.5701C87.6078 80.1981 93.3336 74.4723 93.3336 67.4346V41.7635C93.3336 34.7258 87.608 29 80.5701 29Z" fill="black"/>
<path d="M70.6679 58.3303C70.289 58.7092 70.289 59.3236 70.6681 59.7023C71.0471 60.0812 71.6614 60.0813 72.0401 59.7022L74.937 56.8049C78.3046 53.4372 78.3046 47.9573 74.9369 44.5896C71.5694 41.2219 66.0894 41.2222 62.7216 44.5896L61.0305 46.2809C61.026 46.2854 61.012 46.2993 60.9862 46.2993C60.9604 46.2993 60.9466 46.2856 60.9421 46.2809L59.2778 44.6167C55.9101 41.249 50.4303 41.2491 47.0626 44.6167C43.6949 47.9844 43.6949 53.4643 47.0626 56.832L59.571 69.3404C59.9493 69.7187 60.4524 69.927 60.9873 69.927C61.5223 69.927 62.0254 69.7186 62.4036 69.3403L69.2776 62.4652C69.6565 62.0862 69.6565 61.4718 69.2774 61.0931C68.8984 60.7142 68.2839 60.7141 67.9053 61.0932L61.0314 67.9683C61.0269 67.9728 61.013 67.9866 60.9873 67.9866C60.9614 67.9866 60.9476 67.9729 60.9431 67.9682L48.4347 55.4598C45.8236 52.8486 45.8236 48.6 48.4347 45.9888C51.0458 43.3775 55.2944 43.3778 57.9056 45.9888L59.5698 47.653C59.948 48.0314 60.4511 48.2397 60.986 48.2397C61.5211 48.2397 62.024 48.0314 62.4025 47.6531L64.0937 45.9618C66.7054 43.3508 70.9536 43.351 73.5647 45.9618C76.1758 48.573 76.1758 52.8214 73.5647 55.4328L70.6679 58.3303Z" fill="black"/>

</svg>
