<svg width="2560" height="305" viewBox="0 0 2560 305" fill="none" xmlns="http://www.w3.org/2000/svg">
<path d="M2590 749C2590 749 1863.38 869.051 1685.5 807.061C1565.29 765.168 1449.42 827.809 1299.5 839.312C1117.3 853.291 1045.86 775.429 898.502 790.225C676.502 812.516 -16 640 -16 640L-47.4999 154C-47.4999 154 681.825 38.5271 782.002 29.5105C903.628 18.5634 890.329 40.3378 1012 29.5105C1091.09 22.4728 1111.57 1.23369 1192 0.0530965C1281.22 -1.25653 1427.64 22.0429 1515.5 29.5105C1636.7 39.8114 1710.33 23.1996 1830.5 35.913C1914.47 44.7962 2634.5 89 2634.5 89L2590 749Z" fill="#412e51"/>
</svg>
