<svg width="91" height="71" viewBox="0 0 91 71" fill="none" xmlns="http://www.w3.org/2000/svg">
<path d="M11.9401 2.15041C12.456 1.62919 13.1348 1.34521 13.857 1.34521H13.8571H13.8571H13.8571H13.8571H13.8571H13.8571H13.8571H13.8572H13.8572H13.8572H13.8572H13.8572H13.8572H13.8572H13.8573H13.8573H13.8573H13.8573H13.8573H13.8573H13.8573H13.8574H13.8574H13.8574H13.8574H13.8574H13.8574H13.8574H13.8575H13.8575H13.8575H13.8575H13.8575H13.8575H13.8575H13.8576H13.8576H13.8576H13.8576H13.8576H13.8576H13.8576H13.8577H13.8577H13.8577H13.8577H13.8577H13.8577H13.8577H13.8578H13.8578H13.8578H13.8578H13.8578H13.8578H13.8578H13.8579H13.8579H13.8579H13.8579H13.8579H13.8579H13.858H13.858H13.858H13.858H13.858H13.858H13.858H13.8581H13.8581H13.8581H13.8581H13.8581H13.8581H13.8581H13.8582H13.8582H13.8582H13.8582H13.8582H13.8582H13.8582H13.8583H13.8583H13.8583H13.8583H13.8583H13.8583H13.8584H13.8584H13.8584H13.8584H13.8584H13.8584H13.8584H13.8585H13.8585H13.8585H13.8585H13.8585H13.8585H13.8585H13.8586H13.8586H13.8586H13.8586H13.8586H13.8586H13.8586H13.8587H13.8587H13.8587H13.8587H13.8587H13.8587H13.8588H13.8588H13.8588H13.8588H13.8588H13.8588H13.8588H13.8589H13.8589H13.8589H13.8589H13.8589H13.8589H13.8589H13.859H13.859H13.859H13.859H13.859H13.859H13.8591H13.8591H13.8591H13.8591H13.8591H13.8591H13.8591H13.8592H13.8592H13.8592H13.8592H13.8592H13.8592H13.8592H13.8593H13.8593H13.8593H13.8593H13.8593H13.8593H13.8594H13.8594H13.8594H13.8594H13.8594H13.8594H13.8594H13.8595H13.8595H13.8595H13.8595H13.8595H13.8595H13.8595H13.8596H13.8596H13.8596H13.8596H13.8596H13.8596H13.8597H13.8597H13.8597H13.8597H13.8597H13.8597H13.8597H13.8598H13.8598H13.8598H13.8598H13.8598H13.8598H13.8599H13.8599H13.8599H13.8599H13.8599H13.8599H13.8599H13.86H13.86H13.86H13.86H13.86H13.86H13.86H13.8601H13.8601H13.8601H13.8601H13.8601H13.8601H13.8602H13.8602H13.8602H13.8602H13.8602H13.8602H13.8602H13.8603H13.8603H13.8603H13.8603H13.8603H13.8603H13.8604H13.8604H13.8604H13.8604H13.8604H13.8604H13.8604H13.8605H13.8605H13.8605H13.8605H13.8605H13.8605H13.8605H13.8606H13.8606H13.8606H13.8606H13.8606H13.8606H13.8607H13.8607H13.8607H13.8607H13.8607H13.8607H13.8607H13.8608H13.8608H13.8608H13.8608H13.8608H13.8608H13.8609H13.8609H13.8609H13.8609H13.8609H13.8609H13.8609H13.861H13.861H13.861H13.861H13.861H13.861H13.861H13.8611H13.8611H13.8611H13.8611H13.8611H13.8611H13.8612H13.8612H13.8612H13.8612H13.8612H13.8612H13.8612H13.8613H13.8613H13.8613H13.8613H13.8613H13.8613H13.8614H13.8614H13.8614H13.8614H13.8614H13.8614H13.8614H13.8615H13.8615H13.8615H13.8615H13.8615H13.8615H13.8616H13.8616H13.8616H13.8616H13.8616H13.8616H13.8616H13.8617H13.8617H13.8617H13.8617H13.8617H13.8617H13.8617H13.8618H13.8618H13.8618H13.8618H13.8618H13.8618H13.8619H13.8619H13.8619H13.8619H13.8619H13.8619H13.8619H13.862H13.862H13.862H13.862H13.862H13.862H13.8621H13.8621H13.8621H13.8621H13.8621H13.8621H13.8621H13.8622H13.8622H13.8622H13.8622H13.8622H13.8622H13.8622H13.8623H13.8623H13.8623H13.8623H13.8623H13.8623H13.8624H13.8624H13.8624H13.8624H13.8624H13.8624H13.8624H13.8625H13.8625H13.8625H13.8625H13.8625H13.8625H13.8625H13.8626H13.8626H13.8626H13.8626H13.8626H13.8626H13.8627H13.8627H13.8627H13.8627H13.8627H13.8627H13.8627H13.8628H13.8628H13.8628H13.8628H13.8628H13.8628H13.8628H13.8629H13.8629H13.8629H13.8629H13.8629H13.8629H13.863H13.863H13.863H13.863H13.863H13.863H13.863H13.8631H13.8631H13.8631H13.8631H13.8631H13.8631H13.8631H13.8632H13.8632H13.8632H13.8632H13.8632H13.8632H13.8633H13.8633H13.8633H13.8633H13.8633H13.8633H13.8633H13.8634H13.8634H13.8634H13.8634H13.8634H13.8634H13.8634H13.8635H13.8635H13.8635H13.8635H13.8635H13.8635H13.8635H13.8636H13.8636H13.8636H13.8636H13.8636H13.8636H13.8636H13.8637H13.8637H13.8637H13.8637H13.8637H13.8637H13.8638H13.8638H13.8638H13.8638H13.8638H13.8638H13.8638H13.8639H13.8639H13.8639H13.8639H13.8639H13.8639H13.8639H13.864H13.864H13.864H13.864H13.864H13.864H13.864H13.8641H13.8641C21.4014 1.36316 34.9138 3.1385 41.9285 14.5789C42.1673 14.9689 42.3007 15.4519 42.3007 15.9809V66.3032C33.4786 57.6811 21.2259 56.1841 13.8788 56.1663C12.3677 56.1624 11.1301 54.9171 11.1301 53.3826V4.12986C11.1301 3.37908 11.4179 2.67785 11.9401 2.15041ZM11.9401 2.15041L11.5847 1.79865L11.9401 2.15041Z" stroke="#222222"/>
<path d="M48.3364 66.3027V15.9808C48.3364 15.4515 48.4697 14.9684 48.7084 14.5785C55.7235 3.13829 69.2357 1.36298 76.7727 1.34473H76.7727H76.7727H76.7728H76.7728H76.7728H76.7728H76.7728H76.7729H76.7729H76.7729H76.7729H76.7729H76.773H76.773H76.773H76.773H76.773H76.7731H76.7731H76.7731H76.7731H76.7732H76.7732H76.7732H76.7732H76.7732H76.7733H76.7733H76.7733H76.7733H76.7733H76.7733H76.7734H76.7734H76.7734H76.7734H76.7734H76.7735H76.7735H76.7735H76.7735H76.7735H76.7736H76.7736H76.7736H76.7736H76.7736H76.7736H76.7737H76.7737H76.7737H76.7737H76.7737H76.7737H76.7738H76.7738H76.7738H76.7738H76.7738H76.7738H76.7739H76.7739H76.7739H76.7739H76.7739H76.7739H76.774H76.774H76.774H76.774H76.774H76.774H76.7741H76.7741H76.7741H76.7741H76.7741H76.7741H76.7742H76.7742H76.7742H76.7742H76.7742H76.7742H76.7742H76.7743H76.7743H76.7743H76.7743H76.7743H76.7744H76.7744H76.7744H76.7744H76.7744H76.7744H76.7744H76.7745H76.7745H76.7745H76.7745H76.7745H76.7745H76.7745H76.7746H76.7746H76.7746H76.7746H76.7746H76.7746H76.7747H76.7747H76.7747H76.7747H76.7747H76.7747H76.7747H76.7748H76.7748H76.7748H76.7748H76.7748H76.7748H76.7749H76.7749H76.7749H76.7749H76.7749H76.7749H76.7749H76.775H76.775H76.775H76.775H76.775H76.775H76.7751H76.7751H76.7751H76.7751H76.7751H76.7751H76.7752H76.7752H76.7752H76.7752H76.7752H76.7752H76.7752H76.7753H76.7753H76.7753H76.7753H76.7753H76.7753H76.7754H76.7754H76.7754H76.7754H76.7754H76.7754H76.7754H76.7755H76.7755H76.7755H76.7755H76.7755H76.7755H76.7756H76.7756H76.7756H76.7756H76.7756H76.7756H76.7756H76.7757H76.7757H76.7757H76.7757H76.7757H76.7757H76.7758H76.7758H76.7758H76.7758H76.7758H76.7758H76.7758H76.7759H76.7759H76.7759H76.7759H76.7759H76.7759H76.776H76.776H76.776H76.776H76.776H76.776H76.7761H76.7761H76.7761H76.7761H76.7761H76.7761H76.7761H76.7762H76.7762H76.7762H76.7762H76.7762H76.7762H76.7763H76.7763H76.7763H76.7763H76.7763H76.7763H76.7764H76.7764H76.7764H76.7764H76.7764H76.7764H76.7764H76.7765H76.7765H76.7765H76.7765H76.7765H76.7765H76.7766H76.7766H76.7766H76.7766H76.7766H76.7766H76.7767H76.7767H76.7767H76.7767H76.7767H76.7767H76.7767H76.7768H76.7768H76.7768H76.7768H76.7768H76.7768H76.7769H76.7769H76.7769H76.7769H76.7769H76.7769H76.777H76.777H76.777H76.777H76.777H76.777H76.777H76.7771H76.7771H76.7771H76.7771H76.7771H76.7771H76.7772H76.7772H76.7772H76.7772H76.7772H76.7772H76.7773H76.7773H76.7773H76.7773H76.7773H76.7773H76.7773H76.7774H76.7774H76.7774H76.7774H76.7774H76.7774H76.7775H76.7775H76.7775H76.7775H76.7775H76.7775H76.7776H76.7776H76.7776H76.7776H76.7776H76.7776H76.7777H76.7777H76.7777H76.7777H76.7777H76.7777H76.7777H76.7778H76.7778H76.7778H76.7778H76.7778H76.7778H76.7779H76.7779H76.7779H76.7779H76.7779H76.7779H76.778H76.778H76.778H76.778H76.778H76.778H76.778H76.7781H76.7781H76.7781H76.7781H76.7781H76.7781H76.7782H76.7782H76.7782H76.7782H76.7782H76.7782H76.7783H76.7783H76.7783H76.7783H76.7783H76.7783H76.7784H76.7784H76.7784H76.7784H76.7784H76.7784H76.7785H76.7785H76.7785H76.7785H76.7785H76.7785H76.7785H76.7786H76.7786H76.7786H76.7786H76.7786H76.7786H76.7787H76.7787H76.7787H76.7787H76.7787H76.7787H76.7788H76.7788H76.7788H76.7788H76.7788H76.7788H76.7789H76.7789H76.7789H76.7789H76.7789H76.7789H76.7789H76.779H76.779H76.779H76.779H76.779H76.779H76.7791H76.7791H76.7791H76.7791H76.7791H76.7791H76.7792H76.7792H76.7792H76.7792H76.7792H76.7792H76.7793H76.7793H76.7793H76.7793H76.7793H76.7793H76.7794H76.7794H76.7794H76.7794H76.7794H76.7794H76.7794H76.7795H76.7795H76.7795H76.7795H76.7795H76.7795H76.7796H76.7796H76.7796H76.7796H76.7796H76.7796H76.7797H76.7797H76.7797H76.7797H76.7797H76.7797H76.7798H76.7798H76.7798H76.7798H76.7798H76.7798H76.7798H76.7799H76.7799H76.7799H76.7799H76.7799H76.7799H76.78H76.78H76.78H76.78H76.78C77.5014 1.34473 78.1808 1.62872 78.6967 2.14992C79.2188 2.67735 79.5066 3.37859 79.5066 4.12938V53.3824C79.5066 54.9166 78.2691 56.1619 76.7583 56.1658C69.4112 56.1836 57.1585 57.6807 48.3364 66.3027Z" stroke="#222222"/>
<path d="M54.1241 69.2954C61.3285 63.3898 70.8138 62.28 76.7726 62.2657C81.6139 62.2535 85.5419 58.2644 85.5419 53.3825V12.7036H87.3935C88.8996 12.7036 90.1366 13.9471 90.1363 15.4876V15.4876V67.6872C90.1363 68.5418 89.7591 69.3338 89.1032 69.8637C88.4451 70.3948 87.5999 70.5894 86.7799 70.4002C79.3634 68.6886 66.5825 66.7007 54.1241 69.2954Z" stroke="#222222"/>
<path d="M1.21887 70.2517C1.99553 70.8788 2.99712 71.1109 3.96879 70.8865C11.5404 69.1388 24.6809 67.1149 37.3139 69.9805C37.05 69.7449 36.7826 69.5163 36.5119 69.2944M1.21887 70.2517L1.53311 69.8628M1.21887 70.2517C0.444333 69.6259 0 68.6907 0 67.6863V15.4876C0 13.6769 1.45507 12.2036 3.24278 12.2036H5.09445V12.7036M1.21887 70.2517L1.53296 69.8627C1.53301 69.8627 1.53306 69.8628 1.53311 69.8628M1.53311 69.8628C2.19074 70.3937 3.03509 70.589 3.85629 70.3994L3.85633 70.3993C11.2728 68.6874 24.054 66.6998 36.5119 69.2944M1.53311 69.8628C0.877237 69.3329 0.5 68.5412 0.5 67.6863V15.4876C0.5 13.9471 1.73712 12.7036 3.24278 12.7036H5.09445M36.5119 69.2944C36.8583 69.3666 37.2044 69.4423 37.5501 69.5216C30.1309 62.9658 20.056 61.7803 13.865 61.7654C9.30476 61.7542 5.59445 57.994 5.59445 53.3825V12.7036H5.09445M36.5119 69.2944C29.3077 63.3893 19.8225 62.2797 13.8638 62.2654C9.0227 62.2536 5.09445 58.2644 5.09445 53.3825V12.7036" stroke="#222222"/>
</svg>
