<svg width="64" height="64" viewBox="0 0 64 64" fill="none" xmlns="http://www.w3.org/2000/svg">
<g clip-path="url(#clip0)">
<path d="M23.9475 44.8925C24.8991 44.8925 25.6706 44.1211 25.6706 43.1694C25.6706 42.2178 24.8991 41.4463 23.9475 41.4463C22.9958 41.4463 22.2244 42.2178 22.2244 43.1694C22.2244 44.1211 22.9958 44.8925 23.9475 44.8925Z" fill="white"/>
<path d="M38.6913 49.7564C38.442 49.2728 37.848 49.0829 37.3644 49.3322C36.3697 49.8449 35.0047 50.3441 34.1503 49.8102C33.3272 49.2961 33.0597 47.9416 32.999 47.1091C33.7218 46.868 34.2183 46.3747 34.2183 45.8037C34.2183 44.9955 33.2252 44.3403 32.0002 44.3403C30.7752 44.3403 29.782 44.9955 29.782 45.8037C29.782 46.3746 30.2787 46.8678 31.0013 47.1089C30.94 47.9273 30.6723 49.2936 29.8532 49.8082C28.9989 50.3449 27.632 49.8456 26.6359 49.3321C26.1523 49.0828 25.5583 49.2727 25.309 49.7563C25.0595 50.2399 25.2495 50.8339 25.733 51.0832C27.8449 52.1719 29.5835 52.3041 30.901 51.4764C31.3275 51.2086 31.6962 50.8413 32 50.3861C32.3039 50.8413 32.6728 51.2084 33.099 51.4764C33.6674 51.8336 34.3143 52.0121 35.0358 52.0121C35.9864 52.0121 37.0663 51.7022 38.267 51.0833C38.7507 50.8339 38.9405 50.2399 38.6913 49.7564Z" fill="white"/>
<path d="M40.053 44.8925C41.0046 44.8925 41.7761 44.1211 41.7761 43.1694C41.7761 42.2178 41.0046 41.4463 40.053 41.4463C39.1013 41.4463 38.3298 42.2178 38.3298 43.1694C38.3298 44.1211 39.1013 44.8925 40.053 44.8925Z" fill="white"/>
<path d="M47.9768 37.9576C47.8454 35.5579 47.1822 33.2978 46.1044 31.2922C56.583 19.6512 61.4926 11.0012 60.6976 5.57661C60.4048 3.57724 59.367 2.02687 57.6134 0.968998C56.5477 0.325999 55.428 0 54.2858 0C48.6374 0 42.7548 7.93136 36.7959 23.5761C35.2812 23.0991 33.6702 22.8407 32 22.8407C30.3297 22.8407 28.7187 23.0991 27.204 23.5761C21.2451 7.93136 15.3625 0 9.71412 0C8.57187 0 7.45237 0.325999 6.38662 0.968998C4.633 2.027 3.59538 3.57724 3.30238 5.57674C2.50738 11.0012 7.417 19.6513 17.8955 31.2923C16.8179 33.2976 16.1547 35.5569 16.0232 37.9561C14.5259 38.2691 13.1652 39.3147 12.1214 40.9776C10.9581 42.8302 10.3175 45.2477 10.3175 47.7843C10.3175 51.9874 12.03 55.867 15.1394 58.7084C18.982 62.2196 24.6546 64.0001 31.9998 64.0001C39.1006 64.0001 44.6478 62.3305 48.4872 59.0375C48.9002 58.6834 48.9478 58.0615 48.5937 57.6485C48.2394 57.2356 47.6175 57.1879 47.2048 57.5421C43.7324 60.52 38.6168 62.03 32 62.03C25.1621 62.03 19.9365 60.4231 16.4682 57.254C12.8306 53.93 12.2875 49.894 12.2875 47.7843C12.2875 43.4709 14.4382 39.8268 16.984 39.8268C17.528 39.8268 17.969 39.3858 17.969 38.8418C17.9694 31.1719 24.3703 24.811 32 24.811C39.6449 24.811 46.0308 31.2061 46.0308 38.8418C46.0308 39.3858 46.4718 39.8268 47.0158 39.8268C48.3037 39.8268 49.563 40.7913 50.4709 42.473C52.0468 45.392 52.4578 50.4919 49.6364 54.7911C49.338 55.2459 49.4647 55.8565 49.9195 56.155C50.3742 56.4534 50.985 56.3268 51.2834 55.8719C54.5654 50.8705 54.1108 45.0687 52.2043 41.5372C51.1433 39.5713 49.638 38.3101 47.9768 37.9576ZM24.3891 24.7667C22.595 20.5077 20.809 16.9415 19.0736 14.1577C18.7857 13.6961 18.1782 13.555 17.7166 13.843C17.255 14.1307 17.1141 14.7382 17.4019 15.2C19.1218 17.9591 20.9013 21.5298 22.6963 25.8225C22.0956 26.2527 21.5246 26.7244 20.9877 27.2342C18.0431 23.7793 15.6946 20.6456 13.9997 17.9088C12.3572 15.2568 10.685 11.7772 10.9171 9.96498C10.9562 9.65948 10.9942 9.57573 11.3082 9.38336C11.5777 9.21823 11.6867 9.22786 11.734 9.23223C11.7854 9.23686 13.0161 9.37636 15.2266 12.1019C15.5694 12.5244 16.1899 12.5891 16.612 12.2465C17.0345 11.9039 17.0992 11.2834 16.7566 10.861C14.3546 7.89936 12.6891 7.33986 11.9101 7.27024C11.361 7.22086 10.8422 7.35849 10.2789 7.70374C9.47387 8.19698 9.08049 8.79836 8.96299 9.71486C8.61199 12.4567 10.9186 16.6755 12.3247 18.9461C14.1002 21.813 16.5591 25.0872 19.6378 28.6867C19.408 28.9658 19.187 29.2523 18.9761 29.5469C6.794 15.9216 4.76938 9.15223 5.2515 5.86236C5.45787 4.45424 6.162 3.40537 7.40437 2.65587C8.16912 2.19437 8.92474 1.97 9.71412 1.97C11.9155 1.97 14.3286 3.74587 16.8864 7.24836C19.6492 11.0317 22.4996 16.7583 25.364 24.2792C25.0332 24.4305 24.7082 24.5935 24.3891 24.7667ZM41.3036 25.8223C43.2627 21.1368 45.1986 17.3202 47.0624 14.4701C50.3394 9.45911 52.189 9.23886 52.2664 9.23186C52.2787 9.23086 52.2918 9.22973 52.3059 9.22973C52.4242 9.22973 52.5985 9.32573 52.6919 9.38298C53.0059 9.57536 53.0439 9.65898 53.083 9.96461C53.3152 11.7769 51.6428 15.2563 50.0004 17.9083C48.3055 20.6451 45.9571 23.7788 43.0124 27.2337C42.4754 26.7243 41.9044 26.2526 41.3036 25.8223ZM45.0241 29.5467C44.8132 29.2521 44.5921 28.9654 44.3623 28.6863C47.441 25.0868 49.8999 21.8126 51.6754 18.9457C54.9515 13.6556 55.1879 10.8914 55.0373 9.71448C54.9199 8.79786 54.5264 8.19636 53.7214 7.70336C53.2343 7.40486 52.7713 7.25974 52.3062 7.25974C52.2354 7.25974 52.1647 7.26299 52.0903 7.26974C51.0299 7.36499 48.7523 8.28673 45.4139 13.3918C43.5246 16.281 41.5746 20.1043 39.6108 24.7666C39.2917 24.5933 38.9668 24.4303 38.6361 24.2792C41.5007 16.7578 44.3511 11.031 47.1138 7.24786C49.6713 3.74587 52.0844 1.97012 54.2859 1.97012C55.0643 1.97012 55.8414 2.20087 56.5957 2.65599C57.8379 3.40549 58.5422 4.45437 58.7485 5.86249C59.2304 9.15223 57.2059 15.9216 45.0241 29.5467Z" fill="white"/>
</g>
<defs>
<clipPath id="clip0">
<rect width="64" height="64" fill="white"/>
</clipPath>
</defs>
</svg>
