<svg width="112" height="23" viewBox="0 0 112 23" fill="none" xmlns="http://www.w3.org/2000/svg">
<path d="M11.4895 22.979C17.835 22.979 22.979 17.835 22.979 11.4895C22.979 5.14402 17.835 0 11.4895 0C5.14402 0 0 5.14402 0 11.4895C0 17.835 5.14402 22.979 11.4895 22.979Z" fill="#EE0005"/>
<path d="M25.7644 22.979C32.1099 22.979 37.2539 17.835 37.2539 11.4895C37.2539 5.14402 32.1099 0 25.7644 0C19.4189 0 14.2749 5.14402 14.2749 11.4895C14.2749 17.835 19.4189 22.979 25.7644 22.979Z" fill="#F9A000"/>
<path d="M14.2749 11.4898C14.2749 15.1379 15.9755 18.3886 18.6269 20.4932C21.2782 18.3885 22.9789 15.1379 22.9789 11.4898C22.9789 7.84162 21.2783 4.59094 18.6269 2.48633C15.9756 4.59111 14.2749 7.84171 14.2749 11.4898Z" fill="#FF6300"/>
<path d="M71.5112 20.0773L74.7585 1.81152H79.8323L76.6865 20.0773H71.5112Z" fill="white"/>
<path d="M71.5112 20.0773L75.6718 1.81152H79.8323L76.6865 20.0773H71.5112Z" fill="white"/>
<path d="M95.0537 2.01396C94.039 1.60805 92.4153 1.20215 90.3858 1.20215C85.312 1.20215 81.6588 3.73906 81.6588 7.39221C81.6588 10.1321 84.1957 11.5527 86.2253 12.466C88.2548 13.3793 88.8637 13.9882 88.8637 14.8C88.8637 16.0177 87.24 16.6266 85.8194 16.6266C83.7898 16.6266 82.6736 16.3221 80.9485 15.6118L80.2382 15.3074L79.5278 19.4679C80.7455 19.9753 82.978 20.4827 85.312 20.4827C90.6902 20.4827 94.2419 17.9458 94.2419 14.0897C94.2419 11.9587 92.9227 10.335 89.8784 9.01583C88.0519 8.10255 86.9356 7.59516 86.9356 6.68188C86.9356 5.87006 87.8489 5.05825 89.8784 5.05825C91.6035 5.05825 92.8212 5.36268 93.7345 5.76859L94.2419 5.97154L95.0537 2.01396Z" fill="white"/>
<path d="M95.0537 2.01396C94.039 1.60805 92.4153 1.20215 90.3858 1.20215C85.312 1.20215 82.5721 3.73906 82.5721 7.39221C82.5721 10.1321 84.1957 11.5527 86.2253 12.466C88.2548 13.3793 88.8637 13.9882 88.8637 14.8C88.8637 16.0177 87.24 16.6266 85.8194 16.6266C83.7898 16.6266 82.6736 16.3221 80.9485 15.6118L80.2382 15.3074L79.5278 19.4679C80.7455 19.9753 82.978 20.4827 85.312 20.4827C90.6902 20.4827 94.2419 17.9458 94.2419 14.0897C94.2419 11.9587 92.9227 10.335 89.8784 9.01583C88.0519 8.10255 86.9356 7.59516 86.9356 6.68188C86.9356 5.87006 87.8489 5.05825 89.8784 5.05825C91.6035 5.05825 92.8212 5.36268 93.7345 5.76859L94.2419 5.97154L95.0537 2.01396Z" fill="white"/>
<path d="M103.78 1.81152C102.562 1.81152 101.649 1.913 101.142 3.13072L93.531 20.0773H99.0107L100.025 17.033H106.52L107.129 20.0773H112L107.738 1.81152H103.78ZM101.446 13.9887C101.751 13.0754 103.476 8.61045 103.476 8.61045C103.476 8.61045 103.882 7.49421 104.186 6.78387L104.49 8.50897C104.49 8.50897 105.505 13.0754 105.708 14.0902H101.446V13.9887Z" fill="white"/>
<path d="M104.998 1.81152C103.78 1.81152 102.867 1.913 102.359 3.13072L93.531 20.0773H99.0107L100.025 17.033H106.52L107.129 20.0773H112L107.738 1.81152H104.998ZM101.446 13.9887C101.852 12.9739 103.476 8.61045 103.476 8.61045C103.476 8.61045 103.882 7.49421 104.186 6.78387L104.49 8.50897C104.49 8.50897 105.505 13.0754 105.708 14.0902H101.446V13.9887Z" fill="white"/>
<path d="M62.1754 14.5967L61.668 11.9583C60.7548 8.91398 57.8119 5.56526 54.5647 3.94164L59.1311 20.1779H64.6109L72.8305 1.91211H67.3507L62.1754 14.5967Z" fill="white"/>
<path d="M62.1754 14.5967L61.668 11.9583C60.7548 8.91398 57.8119 5.56526 54.5647 3.94164L59.1311 20.1779H64.6109L72.8305 1.91211H68.3655L62.1754 14.5967Z" fill="white"/>
<path d="M48.0703 1.81152L48.9836 2.01448C55.4781 3.53662 59.9431 7.39273 61.6682 11.9592L59.8416 3.33367C59.5372 2.11595 58.6239 1.81152 57.5076 1.81152H48.0703Z" fill="white"/>
<path d="M48.0703 1.81152C54.5648 3.33367 59.9431 7.29125 61.6682 11.8577L59.9431 4.65286C59.6386 3.43515 58.6239 2.72481 57.5076 2.72481L48.0703 1.81152Z" fill="white"/>
<path d="M48.0703 1.81152C54.5648 3.33367 59.9431 7.29125 61.6682 11.8577L60.4504 7.90011C60.146 6.68239 59.7401 5.46468 58.3194 4.95729L48.0703 1.81152Z" fill="white"/>
<path d="M67.2488 13.9885L63.7987 10.5383L62.175 14.3944L61.7691 11.8575C60.8558 8.81317 57.913 5.46444 54.6658 3.84082L59.2322 20.077H64.7119L67.2488 13.9885Z" fill="white"/>
<path d="M76.6863 20.0773L72.3228 15.6123L71.511 20.0773H76.6863Z" fill="white"/>
<path d="M88.3556 13.7852C88.7615 14.1911 88.9644 14.4955 88.8629 14.9014C88.8629 16.1191 87.2393 16.728 85.8186 16.728C83.7891 16.728 82.6729 16.4235 80.9478 15.7132L80.2374 15.4088L79.5271 19.5693C80.7448 20.0767 82.9773 20.5841 85.3113 20.5841C88.5585 20.5841 91.1969 19.6708 92.719 18.0472L88.3556 13.7852Z" fill="white"/>
<path d="M94.2417 20.0766H99.0111L100.026 17.0323H106.52L107.129 20.0766H112L110.275 12.6688L104.186 6.7832L104.491 8.40682C104.491 8.40682 105.506 12.9733 105.709 13.988H101.447C101.852 12.9733 103.476 8.60978 103.476 8.60978C103.476 8.60978 103.882 7.49354 104.186 6.7832" fill="white"/>
</svg>
