<svg width="22" height="22" viewBox="0 0 22 22" fill="none" xmlns="http://www.w3.org/2000/svg">
<g clip-path="url(#clip0)">
<path d="M21.8938 6.52825C21.844 5.39961 21.6615 4.62368 21.4001 3.95133C21.1303 3.23764 20.7154 2.59868 20.1717 2.0675C19.6406 1.52806 18.9974 1.1089 18.292 0.84339C17.6157 0.581937 16.8438 0.399423 15.7152 0.34966C14.5781 0.295684 14.2172 0.283203 11.3332 0.283203C8.44932 0.283203 8.08834 0.295684 6.95549 0.345446C5.82685 0.395208 5.05092 0.577885 4.37873 0.839176C3.66488 1.1089 3.02592 1.52385 2.49475 2.0675C1.95531 2.59868 1.5363 3.24185 1.27064 3.94727C1.00918 4.62368 0.826668 5.3954 0.776906 6.52404C0.72293 7.66111 0.710449 8.02209 0.710449 10.906C0.710449 13.7899 0.72293 14.1509 0.772692 15.2838C0.822454 16.4124 1.00513 17.1883 1.26658 17.8607C1.5363 18.5744 1.95531 19.2133 2.49475 19.7445C3.02592 20.284 3.66909 20.7031 4.37451 20.9686C5.05092 21.2301 5.82263 21.4126 6.95144 21.4624C8.08413 21.5123 8.44527 21.5246 11.3292 21.5246C14.2131 21.5246 14.5741 21.5123 15.7069 21.4624C16.8356 21.4126 17.6115 21.2301 18.2837 20.9686C19.7112 20.4167 20.8399 19.2881 21.3918 17.8607C21.6531 17.1843 21.8358 16.4124 21.8855 15.2838C21.9353 14.1509 21.9478 13.7899 21.9478 10.906C21.9478 8.02209 21.9435 7.66111 21.8938 6.52825ZM19.981 15.2008C19.9352 16.2382 19.761 16.7984 19.6158 17.1718C19.2588 18.0972 18.5244 18.8316 17.599 19.1885C17.2256 19.3338 16.6613 19.508 15.628 19.5536C14.5076 19.6035 14.1716 19.6158 11.3375 19.6158C8.50329 19.6158 8.16307 19.6035 7.04675 19.5536C6.00936 19.508 5.44918 19.3338 5.07572 19.1885C4.61522 19.0184 4.19605 18.7486 3.85582 18.3959C3.50311 18.0515 3.23339 17.6365 3.0632 17.176C2.91797 16.8026 2.74372 16.2382 2.69817 15.205C2.64825 14.0846 2.63593 13.7484 2.63593 10.9143C2.63593 8.08011 2.64825 7.73988 2.69817 6.62372C2.74372 5.58634 2.91797 5.02615 3.0632 4.6527C3.23339 4.19203 3.50311 3.77303 3.86004 3.43264C4.20432 3.07992 4.61927 2.8102 5.07993 2.64017C5.45339 2.49494 6.01779 2.32069 7.05096 2.27498C8.17133 2.22522 8.50751 2.21274 11.3415 2.21274C14.1799 2.21274 14.5159 2.22522 15.6322 2.27498C16.6696 2.32069 17.2298 2.49494 17.6032 2.64017C18.0637 2.8102 18.4829 3.07992 18.8231 3.43264C19.1758 3.77708 19.4456 4.19203 19.6158 4.6527C19.761 5.02615 19.9352 5.59039 19.981 6.62372C20.0307 7.7441 20.0432 8.08011 20.0432 10.9143C20.0432 13.7484 20.0307 14.0804 19.981 15.2008Z" fill="white"/>
<path d="M11.3324 5.4502C8.31991 5.4502 5.87573 7.89421 5.87573 10.9068C5.87573 13.9195 8.31991 16.3635 11.3324 16.3635C14.345 16.3635 16.789 13.9195 16.789 10.9068C16.789 7.89421 14.345 5.4502 11.3324 5.4502ZM11.3324 14.4464C9.37804 14.4464 7.79279 12.8613 7.79279 10.9068C7.79279 8.95234 9.37804 7.36725 11.3324 7.36725C13.2869 7.36725 14.872 8.95234 14.872 10.9068C14.872 12.8613 13.2869 14.4464 11.3324 14.4464Z" fill="white"/>
<path d="M18.2789 5.23482C18.2789 5.93829 17.7085 6.50869 17.0048 6.50869C16.3014 6.50869 15.731 5.93829 15.731 5.23482C15.731 4.53118 16.3014 3.96094 17.0048 3.96094C17.7085 3.96094 18.2789 4.53118 18.2789 5.23482Z" fill="white"/>
</g>
<defs>
<clipPath id="clip0">
<rect width="21.2415" height="21.2415" fill="white" transform="translate(0.672363 0.283203)"/>
</clipPath>
</defs>
</svg>
