<svg width="52" height="52" viewBox="0 0 52 52" fill="none" xmlns="http://www.w3.org/2000/svg">
<path d="M26.0001 8.47819C26.6218 8.47819 27.1305 7.96949 27.1305 7.34775V6.78253C27.1305 6.1608 26.6218 5.6521 26.0001 5.6521C25.3783 5.6521 24.8696 6.1608 24.8696 6.78253V7.34775C24.8696 7.96949 25.3783 8.47819 26.0001 8.47819Z" fill="white"/>
<path d="M26.0001 43.5217C25.3783 43.5217 24.8696 44.0304 24.8696 44.6522V45.2174C24.8696 45.8391 25.3783 46.3478 26.0001 46.3478C26.6218 46.3478 27.1305 45.8391 27.1305 45.2174V44.6522C27.1305 44.0304 26.6218 43.5217 26.0001 43.5217Z" fill="white"/>
<path d="M7.34775 24.8696H6.78253C6.1608 24.8696 5.6521 25.3783 5.6521 26.0001C5.6521 26.6218 6.1608 27.1305 6.78253 27.1305H7.34775C7.96949 27.1305 8.47819 26.6218 8.47819 26.0001C8.47819 25.3783 7.96949 24.8696 7.34775 24.8696Z" fill="white"/>
<path d="M45.2174 24.8696H44.6522C44.0304 24.8696 43.5217 25.3783 43.5217 26.0001C43.5217 26.6218 44.0304 27.1305 44.6522 27.1305H45.2174C45.8391 27.1305 46.3478 26.6218 46.3478 26.0001C46.3478 25.3783 45.8391 24.8696 45.2174 24.8696Z" fill="white"/>
<path d="M13.2259 11.6436C12.7738 11.1914 12.0955 11.1914 11.6433 11.6436C11.1912 12.0957 11.1912 12.774 11.6433 13.2262L12.039 13.6218C12.2651 13.8479 12.5477 13.961 12.8303 13.961C13.1129 13.961 13.3955 13.8479 13.6216 13.6218C14.0738 13.1697 14.0738 12.4914 13.6216 12.0392L13.2259 11.6436Z" fill="white"/>
<path d="M12.039 38.3782L11.6433 38.7738C11.1912 39.226 11.1912 39.9043 11.6433 40.3565C11.8694 40.5825 12.152 40.6956 12.4346 40.6956C12.7172 40.6956 12.9999 40.5825 13.2259 40.3565L13.6216 39.9608C14.0738 39.5086 14.0738 38.8304 13.6216 38.3782C13.1694 37.926 12.4912 37.926 12.039 38.3782Z" fill="white"/>
<path d="M38.7738 11.6436L38.3782 12.0392C37.926 12.4914 37.926 13.1697 38.3782 13.6218C38.6043 13.8479 38.8869 13.961 39.1695 13.961C39.4521 13.961 39.7347 13.8479 39.9608 13.6218L40.3565 13.2262C40.8086 12.774 40.8086 12.0957 40.3565 11.6436C39.9043 11.1914 39.226 11.1914 38.7738 11.6436Z" fill="white"/>
<path d="M27.1305 25.5478V15.2608C27.1305 14.6391 26.6218 14.1304 26.0001 14.1304C25.3783 14.1304 24.8696 14.6391 24.8696 15.2608V25.9999C24.8696 26.2825 24.9827 26.5652 25.2088 26.7912L37.587 39.1695C37.8131 39.3956 38.0957 39.5086 38.3783 39.5086C38.6609 39.5086 38.9435 39.3956 39.1696 39.1695C39.6218 38.7173 39.6218 38.0391 39.1696 37.5869L27.1305 25.5478Z" fill="white"/>
<path d="M26 0C11.6435 0 0 11.6435 0 26C0 40.3565 11.6435 52 26 52C40.3565 52 52 40.3565 52 26C52 11.6435 40.3565 0 26 0ZM26 49.7391C12.887 49.7391 2.26087 39.113 2.26087 26C2.26087 12.887 12.887 2.26087 26 2.26087C39.113 2.26087 49.7391 12.887 49.7391 26C49.7391 39.113 39.113 49.7391 26 49.7391Z" fill="white"/>
</svg>
