<svg width="37" height="36" viewBox="0 0 37 36" fill="none" xmlns="http://www.w3.org/2000/svg">
<path d="M17.6021 1.83164C17.968 1.08521 19.032 1.08521 19.3979 1.83164L23.9751 11.1685C24.1208 11.4657 24.4041 11.6716 24.7318 11.7183L35.0261 13.1862C35.8491 13.3036 36.1779 14.3155 35.5811 14.8941L28.1156 22.1325C27.8779 22.363 27.7697 22.696 27.8265 23.0221L29.6116 33.2662C29.7543 34.0852 28.8936 34.7106 28.1588 34.3218L18.9677 29.4585C18.6751 29.3037 18.3249 29.3037 18.0323 29.4585L8.84122 34.3218C8.10645 34.7106 7.24566 34.0852 7.38837 33.2662L9.17345 23.0221C9.23028 22.696 9.12205 22.363 8.8844 22.1325L1.41892 14.8941C0.822095 14.3155 1.15088 13.3036 1.97386 13.1862L12.2682 11.7183C12.5959 11.6716 12.8792 11.4657 13.0249 11.1685L17.6021 1.83164Z" stroke="#3E3E3E" stroke-width="2"/>
</svg>
