<svg width="96" height="94" viewBox="0 0 96 94" fill="none" xmlns="http://www.w3.org/2000/svg">
<mask id="path-1-inside-1" fill="white">
<path fill-rule="evenodd" clip-rule="evenodd" d="M84.6239 45.7972C87.4116 45.7972 90.4389 47.0837 91.234 49.7556L95.6427 64.5706C96.4304 67.2173 94.9233 70.0014 92.2766 70.789L76.8599 75.3768C74.4122 76.1052 73.1899 78.8217 73.1899 81.3756C73.1899 88.2995 67.577 93.9124 60.6531 93.9124C56.5183 93.9124 52.851 91.9108 50.5674 88.8236C48.8185 86.4592 45.9308 84.5808 43.112 85.4197L33.1675 88.379C30.5208 89.1666 27.7367 87.6595 26.9491 85.0128L23.1073 72.1032C22.0633 68.5948 17.4276 67.3141 13.7849 67.6742C13.3744 67.7147 12.9581 67.7355 12.5369 67.7355C5.61294 67.7355 0 62.1226 0 55.1987C0 48.2747 5.61294 42.6618 12.5369 42.6618C13.4019 42.6618 14.1037 41.8474 13.8569 41.0183L8.79772 24.0174C8.01009 21.3707 9.51718 18.5866 12.1639 17.799L22.709 14.661C25.654 13.7846 28.6615 15.8709 30.4 18.4045C32.6593 21.697 36.4497 23.8566 40.7445 23.8566C47.6684 23.8566 53.2814 18.2437 53.2814 11.3197C53.2814 8.39138 54.6025 5.16991 57.4092 4.33467L71.273 0.209008C73.9197 -0.578617 76.7038 0.928472 77.4914 3.57519L81.0135 15.4107C81.8755 18.3073 79.8704 21.2686 77.4015 23.0116C74.1866 25.2814 72.087 29.0257 72.087 33.2603C72.087 40.1843 77.7 45.7972 84.6239 45.7972Z"/>
</mask>
<path d="M81.0135 15.4107L81.9719 15.1255L81.0135 15.4107ZM13.7849 67.6742L13.8833 68.6693L13.7849 67.6742ZM76.8599 75.3768L76.5747 74.4183L76.8599 75.3768ZM77.4914 3.57519L78.4498 3.28996L77.4914 3.57519ZM33.1675 88.379L32.8823 87.4205L33.1675 88.379ZM91.234 49.7556L92.1925 49.4704L91.234 49.7556ZM50.5674 88.8236L49.7635 89.4183L50.5674 88.8236ZM43.112 85.4197L42.8268 84.4612L43.112 85.4197ZM95.6427 64.5706L94.6843 64.8558L95.6427 64.5706ZM92.2766 70.789L91.9913 69.8305L92.2766 70.789ZM96.6012 64.2853L92.1925 49.4704L90.2756 50.0408L94.6843 64.8558L96.6012 64.2853ZM77.1451 76.3352L92.5618 71.7474L91.9913 69.8305L76.5747 74.4183L77.1451 76.3352ZM60.6531 94.9124C68.1293 94.9124 74.1899 88.8518 74.1899 81.3756H72.1899C72.1899 87.7472 67.0247 92.9124 60.6531 92.9124V94.9124ZM49.7635 89.4183C52.2275 92.7494 56.1878 94.9124 60.6531 94.9124V92.9124C56.8488 92.9124 53.4745 91.0721 51.3714 88.2289L49.7635 89.4183ZM33.4527 89.3375L43.3972 86.3781L42.8268 84.4612L32.8823 87.4205L33.4527 89.3375ZM22.1489 72.3884L25.9906 85.298L27.9075 84.7276L24.0658 71.818L22.1489 72.3884ZM12.5369 68.7355C12.991 68.7355 13.4401 68.7131 13.8833 68.6693L13.6866 66.679C13.3087 66.7164 12.9252 66.7355 12.5369 66.7355V68.7355ZM-1 55.1987C-1 62.6749 5.06066 68.7355 12.5369 68.7355V66.7355C6.16523 66.7355 1 61.5703 1 55.1987H-1ZM12.5369 41.6618C5.06066 41.6618 -1 47.7224 -1 55.1987H1C1 48.827 6.16523 43.6618 12.5369 43.6618V41.6618ZM7.83925 24.3027L12.8985 41.3035L14.8154 40.7331L9.75618 23.7322L7.83925 24.3027ZM22.4237 13.7025L11.8787 16.8406L12.4491 18.7575L22.9942 15.6194L22.4237 13.7025ZM40.7445 22.8566C36.7932 22.8566 33.3053 20.8711 31.2245 17.8387L29.5754 18.9703C32.0133 22.523 36.1062 24.8566 40.7445 24.8566V22.8566ZM52.2814 11.3197C52.2814 17.6914 47.1161 22.8566 40.7445 22.8566V24.8566C48.2207 24.8566 54.2814 18.7959 54.2814 11.3197H52.2814ZM70.9877 -0.749452L57.124 3.37621L57.6944 5.29313L71.5582 1.16747L70.9877 -0.749452ZM81.9719 15.1255L78.4498 3.28996L76.5329 3.86041L80.055 15.696L81.9719 15.1255ZM73.087 33.2603C73.087 29.3643 75.0174 25.919 77.9783 23.8286L76.8248 22.1947C73.3558 24.6438 71.087 28.6871 71.087 33.2603H73.087ZM84.6239 44.7972C78.2523 44.7972 73.087 39.632 73.087 33.2603H71.087C71.087 40.7365 77.1477 46.7972 84.6239 46.7972V44.7972ZM80.055 15.696C80.3929 16.8312 80.1861 18.0226 79.5736 19.1742C78.9576 20.3326 77.9553 21.3965 76.8248 22.1947L77.9783 23.8286C79.3165 22.8837 80.5512 21.5955 81.3395 20.1133C82.1313 18.6244 82.4961 16.8868 81.9719 15.1255L80.055 15.696ZM24.0658 71.818C23.4286 69.6769 21.7153 68.2962 19.7992 67.5125C17.8831 66.7287 15.6468 66.4853 13.6866 66.679L13.8833 68.6693C15.5658 68.503 17.4686 68.72 19.042 69.3636C20.6155 70.0073 21.742 71.0211 22.1489 72.3884L24.0658 71.818ZM22.9942 15.6194C24.1482 15.276 25.3595 15.4951 26.5284 16.1321C27.7039 16.7726 28.7788 17.8094 29.5754 18.9703L31.2245 17.8387C30.2826 16.466 28.9846 15.1928 27.4854 14.3759C25.9797 13.5554 24.2148 13.1695 22.4237 13.7025L22.9942 15.6194ZM76.5747 74.4183C73.5152 75.3288 72.1899 78.6123 72.1899 81.3756H74.1899C74.1899 79.0311 75.3091 76.8816 77.1451 76.3352L76.5747 74.4183ZM71.5582 1.16747C73.6756 0.537369 75.9028 1.74304 76.5329 3.86041L78.4498 3.28996C77.5047 0.113904 74.1638 -1.6946 70.9877 -0.749452L71.5582 1.16747ZM32.8823 87.4205C30.7649 88.0506 28.5376 86.845 27.9075 84.7276L25.9906 85.298C26.9358 88.4741 30.2767 90.2826 33.4527 89.3375L32.8823 87.4205ZM9.75618 23.7322C9.12608 21.6149 10.3317 19.3876 12.4491 18.7575L11.8787 16.8406C8.70262 17.7857 6.8941 21.1266 7.83925 24.3027L9.75618 23.7322ZM92.1925 49.4704C91.2103 46.1698 87.5955 44.7972 84.6239 44.7972V46.7972C87.2278 46.7972 89.6675 47.9975 90.2756 50.0408L92.1925 49.4704ZM54.2814 11.3197C54.2814 9.99359 54.5826 8.62262 55.1749 7.51324C55.7635 6.41072 56.6079 5.61647 57.6944 5.29313L57.124 3.37621C55.4038 3.8881 54.1842 5.12221 53.4106 6.57133C52.6406 8.01359 52.2814 9.71754 52.2814 11.3197H54.2814ZM51.3714 88.2289C49.5322 85.7425 46.257 83.4404 42.8268 84.4612L43.3972 86.3781C45.6045 85.7213 48.1048 87.1759 49.7635 89.4183L51.3714 88.2289ZM12.5369 43.6618C13.9629 43.6618 15.2826 42.3032 14.8154 40.7331L12.8985 41.3035C12.9154 41.3604 12.9102 41.4322 12.8415 41.5157C12.7678 41.6053 12.6536 41.6618 12.5369 41.6618V43.6618ZM94.6843 64.8558C95.3144 66.9732 94.1087 69.2004 91.9913 69.8305L92.5618 71.7474C95.7378 70.8023 97.5463 67.4614 96.6012 64.2853L94.6843 64.8558Z" fill="#222222" mask="url(#path-1-inside-1)"/>
</svg>
