<svg width="861" height="330" viewBox="0 0 861 330" fill="none" xmlns="http://www.w3.org/2000/svg">
<path d="M161.246 21.8628C139.581 26.9948 106.759 25.0926 76.6274 21.1088C45.9696 17.0554 16.6057 38.669 14.5276 69.5237L0.593935 276.4C-1.35062 305.271 21.5441 329.76 50.4808 329.76H668.429C691.018 329.76 880.283 251.57 859 244C832.501 234.575 768.6 212.585 773 177C778.75 130.501 755.361 72.8108 708.245 49.0286C661.13 25.2464 625.542 57.0511 599.485 57.0511C553.616 57.0511 550.389 17.9229 507.252 10.5523C485.385 6.8161 411.239 21.8628 369.241 36.3151C327.242 50.7674 286.756 5.20491 257.743 1.12692C219.744 -4.21416 208.995 10.5523 161.246 21.8628Z" fill="url(#paint0_linear)" fill-opacity="0.8"/>
<defs>
<linearGradient id="paint0_linear" x1="404.5" y1="0" x2="404.5" y2="330" gradientUnits="userSpaceOnUse">
<stop stop-color="white"/>
<stop offset="1" stop-color="white" stop-opacity="0"/>
</linearGradient>
</defs>
</svg>
