<svg width="936" height="360" viewBox="0 0 936 360" fill="none" xmlns="http://www.w3.org/2000/svg">
<path d="M760.492 23.8613C785.247 29.75 823.406 27.1529 857.478 22.3513C888.125 18.0324 917.523 39.6828 919.594 70.563L935.422 306.557C937.358 335.424 914.465 359.903 885.534 359.903H209.556C184.869 359.903 -21.1021 274.608 2.14679 266.304C30.9472 256.017 100.397 232.017 95.6147 193.18C89.3656 142.43 114.785 79.4664 165.992 53.5103C217.199 27.5542 255.877 62.2661 284.198 62.2661C334.049 62.2661 337.556 19.5613 384.439 11.5169C408.205 7.43916 488.789 23.8613 534.435 39.6347C580.081 55.4081 624.082 5.6807 655.615 1.22994C696.913 -4.59938 708.596 11.5169 760.492 23.8613Z" fill="url(#paint0_linear)" fill-opacity="0.8"/>
<defs>
<linearGradient id="paint0_linear" x1="496.114" y1="0" x2="496.114" y2="360.165" gradientUnits="userSpaceOnUse">
<stop stop-color="white"/>
<stop offset="1" stop-color="white" stop-opacity="0"/>
</linearGradient>
</defs>
</svg>
