<svg width="817" height="360" viewBox="0 0 817 360" fill="none" xmlns="http://www.w3.org/2000/svg">
<path d="M56.5084 23.8613C31.7526 29.75 -6.40607 27.1529 -40.478 22.3513C-71.1248 18.0324 -100.523 39.6828 -102.594 70.563L-118.422 306.557C-120.358 335.424 -97.4652 359.903 -68.5341 359.903H607.444C632.131 359.903 838.102 274.608 814.853 266.304C786.053 256.017 716.603 232.017 721.385 193.18C727.634 142.43 702.215 79.4664 651.008 53.5103C599.801 27.5542 561.123 62.2661 532.802 62.2661C482.951 62.2661 479.444 19.5613 432.561 11.5169C408.795 7.43916 328.211 23.8613 282.565 39.6347C236.919 55.4081 192.918 5.6807 161.385 1.22994C120.087 -4.59938 108.404 11.5169 56.5084 23.8613Z" fill="url(#paint0_linear)" fill-opacity="0.8"/>
<defs>
<linearGradient id="paint0_linear" x1="320.886" y1="0" x2="320.886" y2="360.165" gradientUnits="userSpaceOnUse">
<stop stop-color="white"/>
<stop offset="1" stop-color="white" stop-opacity="0"/>
</linearGradient>
</defs>
</svg>
