<svg width="1488" height="948" viewBox="0 0 1488 948" fill="none" xmlns="http://www.w3.org/2000/svg">
<path d="M175.331 43.1976C132.021 -32.1985 -22.1006 8.7424 -93.7478 38.6374L-99.8652 947.593L1553.3 854.755C1553.42 809.121 1536.2 713.735 1466.38 697.266C1379.12 676.681 1418.73 602.539 1324.28 525.831C1229.83 449.124 1089.19 546.821 1011.34 565.145C933.479 583.468 882.056 552.697 813.887 472.029C745.718 391.362 731.992 375.336 642.286 348.915C552.58 322.494 473.165 380.542 448 338.793C422.835 297.044 478.192 259.336 415.404 203.839C352.616 148.342 331.511 228.628 218.773 195.897C106.036 163.166 229.468 137.443 175.331 43.1976Z" fill="url(#paint0_linear)"/>
<defs>
<linearGradient id="paint0_linear" x1="656.771" y1="-43.5995" x2="728.131" y2="916.111" gradientUnits="userSpaceOnUse">
<stop stop-color="#ED6284"/>
<stop offset="1" stop-color="#ED6284" stop-opacity="0"/>
</linearGradient>
</defs>
</svg>
